<?xml version="1.0" standalone="no"?><!DOCTYPE svg PUBLIC "-//W3C//DTD SVG 1.1//EN" "http://www.w3.org/Graphics/SVG/1.1/DTD/svg11.dtd" ><svg xmlns="http://www.w3.org/2000/svg"><metadata></metadata><defs><font id="fonteditor" horiz-adv-x="2048"><font-face font-family="÷O`{o+ke" font-weight="400" font-stretch="normal" units-per-em="2048" panose-1="2 1 6 4 0 1 1 1 1 1" ascent="1638" descent="-409" x-height="1" bbox="26 -382 2011 1616" underline-thickness="0" underline-position="0" unicode-range="U+002e-ff0c" /><missing-glyph horiz-adv-x="2048"  /><glyph glyph-name="period" unicode="." d="M605 49 L610 -68 Q610 -84 599.5 -96.5 Q589 -109 579 -117 Q569 -125 558 -125 L434 -127 Q407 -128 396 -122.5 Q385 -117 379 -101 Q373 -85 373 -72 L374 49 Q374 69 376.5 76 Q379 83 398 92 Q417 101 438 102 L553 105 Q574 105 584 95 Q594 85 599 70 Q604 55 605 49 Z" /><glyph glyph-name="zero" unicode="0" d="M104 548 Q104 760 110.5 884 Q117 1008 138 1117 Q159 1226 197 1296 L341 1446 L507 1490 L648 1475 L795 1392 Q834 1355 866 1296 Q898 1237 910.5 1144 Q923 1051 927 901 Q931 751 932 546.5 Q933 342 920 206 Q909 100 883 10.5 Q857 -79 796 -149 Q735 -219 664.5 -244.5 Q594 -270 505 -265 Q412 -261 336.5 -224.5 Q261 -188 201 -96 Q141 -4 122.5 150.5 Q104 305 104 548 ZM238 561 Q236 315 255 194.5 Q274 74 303 17 Q332 -40 388.5 -80.5 Q445 -121 513 -127 Q572 -133 621.5 -110 Q671 -87 707 -35 Q743 17 763.5 102.5 Q784 188 787.5 324 Q791 460 791.5 595 Q792 730 790 889 Q787 1053 770 1128 Q753 1203 728 1241 Q703 1279 661 1308.5 Q619 1338 547 1343 Q461 1348 406.5 1312 Q352 1276 320 1218 Q288 1160 269.5 1075 Q251 990 244.5 841 Q238 692 238 561 Z" /><glyph glyph-name="one" unicode="1" d="M489 1289 Q412 1296 372.5 1296.5 Q333 1297 287.5 1293 Q242 1289 223 1293 Q206 1296 197.5 1304 Q189 1312 194 1364 L199 1397 L218 1422 L299 1438 L385 1442 L492 1433 L496 1484 L517 1498 L553 1498 L591 1494 L627 1479 L636 1428 Q632 1352 632 1298 L607 -143 Q605 -201 603.5 -228.5 Q602 -256 595 -264.5 Q588 -273 556.5 -280.5 Q525 -288 505 -288.5 Q485 -289 474 -277 Q463 -265 464 -229 L489 1289 Z" /><glyph glyph-name="two" unicode="2" d="M360 -107 Q531 -109 617 -112 L732 -117 Q795 -120 829 -117 L874 -113 Q895 -112 904.5 -119 Q914 -126 911 -161 L905 -215 Q904 -240 898 -248.5 Q892 -257 869 -260 Q847 -264 795 -257.5 Q743 -251 586 -251 L373 -250 Q307 -251 255.5 -254 Q204 -257 180.5 -257.5 Q157 -258 135 -260 Q113 -262 108 -255 Q103 -249 103 -206 Q103 -163 101 -141 Q99 -119 105 -110 Q111 -102 144 -95 L197 -85 Q234 -38 260 -4 Q286 30 362 142.5 Q438 255 501 355.5 Q564 456 637.5 589 Q711 722 748 824 Q785 926 789 1004.5 Q793 1083 776 1151 Q754 1233 703 1284.5 Q652 1336 565 1341.5 Q478 1347 398 1265 Q363 1229 338 1179 Q313 1129 305.5 1107.5 Q298 1086 282 1030 Q266 974 261 950 Q256 926 245.5 907.5 Q235 889 207 885 Q187 881 155.5 895.5 Q124 910 118.5 919.5 Q113 929 119 957 Q131 1021 138.5 1048.5 Q146 1076 170 1142.5 Q194 1209 236 1286.5 Q278 1364 369 1424 L587 1485 L737 1444 Q847 1383 893 1272.5 Q939 1162 935 1040 Q930 913 887 790.5 Q844 668 796.5 580 Q749 492 607.5 270 Q466 48 464 45 L360 -107 Z" /><glyph glyph-name="three" unicode="3" d="M779 643 Q819 609 846 579 Q873 549 904.5 474 Q936 399 947.5 326.5 Q959 254 952 167 Q943 67 913 -16 Q883 -99 839.5 -150 Q796 -201 740 -224.5 Q684 -248 627.5 -255.5 Q571 -263 551 -263 Q511 -265 455.5 -258 Q400 -251 358 -236 Q316 -221 266.5 -193.5 Q217 -166 181.5 -142 Q146 -118 128.5 -102 Q111 -86 108 -70 Q105 -54 127 -21 Q140 -1 155 11.5 Q170 24 180.5 25.5 Q191 27 213 11 L270 -31 Q324 -69 377.5 -88 Q431 -107 471 -114 Q511 -121 543 -120 Q596 -120 656 -96.5 Q716 -73 768 -2 Q820 69 816 224 Q811 360 771.5 429 Q732 498 697 529 Q662 560 633.5 569 Q605 578 568 577 L521 574 Q489 573 483 584 Q480 589 479.5 606.5 Q479 624 476 659.5 Q473 695 484 706 Q492 713 504.5 714.5 Q517 716 537.5 717 Q558 718 599.5 722.5 Q641 727 670 738 Q699 749 743.5 800.5 Q788 852 797 960 Q806 1068 765 1165 Q738 1226 697 1270 Q656 1314 623 1326.5 Q590 1339 546 1341 Q500 1342 468 1334 Q436 1326 402.5 1305.5 Q369 1285 325 1246.5 Q281 1208 252 1172 Q223 1136 206.5 1133.5 Q190 1131 166 1151 Q149 1164 137.5 1185 Q126 1206 125.5 1226.5 Q125 1247 165 1288 Q209 1334 258 1376 L353 1445 L434 1476 L520 1489 L633 1475 L777 1394 Q862 1319 898 1222 Q934 1125 934.5 1020 Q935 915 916 841 Q896 765 866.5 726.5 Q837 688 807.5 665.5 Q778 643 779 643 Z" /><glyph glyph-name="four" unicode="4" d="M819 203 L903 207 L929 211 Q942 210 951 200 Q957 192 957 163 L960 113 Q960 87 953 75 Q946 64 938 62 L913 62 L819 61 L815 -95 L811 -183 Q810 -196 810.5 -225 Q811 -254 802 -261 Q796 -266 774 -268 L748 -271 Q726 -273 708.5 -269 Q691 -265 682 -256.5 Q673 -248 674.5 -220 Q676 -192 678 -133 L682 55 L200 32 L142 28 Q126 29 115.5 36 Q105 43 100 63 Q95 83 96 143 Q97 196 99.5 210.5 Q102 225 112 247 L141 301 L220 456 L282 574 Q313 635 388.5 798.5 Q464 962 511 1059 Q558 1156 559 1158.5 Q560 1161 626 1311 L677 1432 L711 1486 L736 1493 L780 1497 L821 1486 L828 1457 L828 1412 L831 1241 Q832 1170 829 923 L819 203 ZM252 183 L678 200 L695 1122 Q644 1015 577.5 873.5 Q511 732 498 706 L337 375 L252 183 Z" /><glyph glyph-name="five" unicode="5" d="M303 1304 L269 1023 Q333 1036 368 1040 Q403 1044 438 1044 Q508 1042 583 1018 Q658 994 752.5 919.5 Q847 845 893.5 707 Q940 569 944 417 Q948 265 931 160 Q914 57 879.5 -19.5 Q845 -96 801 -142 Q757 -188 698 -210 Q639 -232 572 -240.5 Q505 -249 460 -248 Q440 -248 395.5 -245 Q351 -242 324 -239.5 Q297 -237 234.5 -228.5 Q172 -220 140.5 -208.5 Q109 -197 104.5 -186 Q100 -175 104 -156 L110 -124 Q115 -86 124.5 -76 Q134 -66 164 -66 Q178 -67 217.5 -76.5 Q257 -86 326.5 -94 Q396 -102 433 -106 Q470 -110 512 -107 Q571 -104 634.5 -75.5 Q698 -47 738.5 23.5 Q779 94 792 197 Q805 300 802 398 Q797 533 762 633.5 Q727 734 674 788.5 Q621 843 558.5 871 Q496 899 421 899 Q371 898 339 890 L252 869 Q253 846 250.5 834.5 Q248 823 239 812.5 Q230 802 203.5 795.5 Q177 789 168 788 Q142 784 124 792 Q106 800 101.5 809 Q97 818 107 914 L153 1316 L168 1446 L188 1452 L236 1452 L290 1449 L371 1446 L593 1449 L796 1452 L843 1452 L881 1442 L895 1401 Q896 1382 893.5 1352.5 Q891 1323 880 1316.5 Q869 1310 834 1315 L728 1310 L303 1304 Z" /><glyph glyph-name="six" unicode="6" d="M402 1020 Q456 1038 503 1049 Q550 1060 604 1054 Q695 1042 773 970 Q851 898 896.5 768.5 Q942 639 941 433 Q939 301 923 199 Q907 97 878.5 7 Q850 -83 778.5 -175 Q707 -267 576 -275.5 Q445 -284 342 -206 Q250 -138 197 -24.5 Q144 89 118.5 215.5 Q93 342 98 507 Q102 633 125.5 725 Q149 817 195 914 Q241 1011 295.5 1103 Q350 1195 417 1293 L515 1436 L581 1496 L616 1484 L657 1451 L674 1414 L645 1369 Q623 1345 572 1274.5 Q521 1204 520 1202 L458 1106 Q401 1019 402 1020 ZM543 -136 Q572 -140 623.5 -115.5 Q675 -91 717 -19.5 Q759 52 781.5 173 Q804 294 807 381.5 Q810 469 801 554 Q791 635 770.5 705.5 Q750 776 717 823 Q684 870 648.5 888 Q613 906 550.5 915 Q488 924 404 875 Q343 839 305 779 Q267 719 251 643.5 Q235 568 232.5 473 Q230 378 243 295 Q257 197 297.5 96 Q338 -5 407.5 -67 Q477 -129 543 -136 Z" /><glyph glyph-name="seven" unicode="7" d="M805 1314 L266 1302 L193 1302 Q165 1300 156 1302 Q122 1305 116 1315.5 Q110 1326 108 1358 L102 1400 L121 1442 L176 1451 L273 1451 L798 1463 L910 1459 L980 1446 L1004 1432 L1016 1409 Q1019 1391 993 1349 Q974 1318 943 1243 L875 1085 Q837 996 738 717 L630 417 Q588 299 555.5 198 Q523 97 498 14.5 Q473 -68 454 -136 Q435 -204 425 -234 Q415 -264 404.5 -272.5 Q394 -281 340 -265 Q286 -249 282 -239 Q278 -229 289 -195 Q294 -180 306 -132 Q318 -84 360 51 Q402 186 426 260.5 Q450 335 484 429.5 Q518 524 612 777.5 Q706 1031 751 1159 L805 1314 Z" /><glyph glyph-name="eight" unicode="8" d="M813 668 Q847 620 879 565 Q911 510 928.5 408 Q946 306 947.5 182.5 Q949 59 925 -22 Q900 -104 854 -157 Q808 -210 755 -233 Q702 -256 641.5 -262 Q581 -268 481 -262 Q396 -257 333 -244 Q270 -231 218.5 -193 Q167 -155 130 -79 Q93 -3 93 134.5 Q93 272 118 391 Q136 478 152 511 L215 658 Q198 685 182 716.5 Q166 748 154 824.5 Q142 901 145 992 Q146 1064 158.5 1140.5 Q171 1217 203 1289 Q235 1361 300 1415 L436 1482 L562 1490 L701 1448 L821 1347 Q859 1292 881.5 1191.5 Q904 1091 901 999 Q898 929 880.5 854.5 Q863 780 842 733 L813 668 ZM543 -119 Q612 -122 644 -115.5 Q676 -109 716 -80.5 Q756 -52 783 6 Q810 64 809 196 Q807 375 776 449.5 Q745 524 710 556.5 Q675 589 622 603.5 Q569 618 523 620 Q482 621 435 612 Q388 603 353.5 576 Q319 549 291 476 Q263 403 249.5 333 Q236 263 235.5 185.5 Q235 108 251 46 Q267 -17 295.5 -48 Q324 -79 366.5 -95.5 Q409 -112 439 -114.5 Q469 -117 543 -119 ZM695 746 Q708 761 725 813 Q742 865 748 922.5 Q754 980 754.5 1055 Q755 1130 726 1209 Q700 1276 665.5 1302.5 Q631 1329 581 1340 Q531 1351 494 1346 Q419 1335 379 1287 Q339 1239 317.5 1165 Q296 1091 294 1015 Q292 939 300 874 Q305 826 316.5 790 Q328 754 342 747 Q356 740 395.5 750 Q435 760 455 761 Q475 762 541 762 Q592 761 631 747.5 Q670 734 680 737 Q690 740 695 746 Z" /><glyph glyph-name="nine" unicode="9" d="M615 184 Q560 167 517 160 Q474 153 403.5 167.5 Q333 182 266 236.5 Q199 291 149.5 434.5 Q100 578 100 774 Q100 925 124 1038 Q148 1151 181 1227 Q214 1303 274 1365 L524 1486 L778 1382 Q836 1324 878.5 1223 Q921 1122 942 991 Q963 860 946 680 Q933 553 904 459.5 Q875 366 827 277.5 Q779 189 717 96 Q655 3 586 -87 L481 -225 Q437 -284 411 -281 Q397 -280 374.5 -266 Q352 -252 336 -231.5 Q320 -211 322 -194 Q323 -181 348 -157 Q373 -133 422 -72 L488 8 L554 101 Q616 184 615 184 ZM542 1340 Q510 1344 454 1321.5 Q398 1299 346.5 1220.5 Q295 1142 268.5 1043.5 Q242 945 238.5 841.5 Q235 738 241 670 Q247 588 267 511.5 Q287 435 323 382.5 Q359 330 442.5 304.5 Q526 279 621 328 Q683 360 723 417.5 Q763 475 784 552 Q805 629 812 720.5 Q819 812 811 898 Q802 985 771 1094.5 Q740 1204 683.5 1266 Q627 1328 542 1340 Z" /><glyph glyph-name="uniFF0C" unicode="&#xff0c;" d="M587 17 L459 -182 L412 -256 Q396 -278 389.5 -289.5 Q383 -301 377.5 -303.5 Q372 -306 356 -306 L319 -306 Q304 -306 303 -295 Q302 -284 307 -269 L319 -215 L379 38 Q387 74 391 85 Q395 96 403 102 L462 101 L546 105 Q565 105 587.5 104.5 Q610 104 617.5 96.5 Q625 89 624 74 L587 17 Z" /><glyph glyph-name="uni7231" unicode="&#x7231;" d="M1011 1489 L1913 1489 Q1922 1416 1917 1396 L1907 1355 L1810 1357 L1830 1066 L1831 1040 L1706 1032 L1686 1369 L1198 1370 L1054 1364 L1075 1012 L1485 1021 L1735 1009 Q1824 1004 1876 968.5 Q1928 933 1927 917 L1946 737 L1811 737 Q1821 800 1813 830 Q1805 860 1780 880.5 Q1755 901 1625 896 L1113 896 L1011 893 L500 881 L464 696 L462 681 L447 618 L960 635 L1007 637 Q1795 627 1871 624 L1880 502 L1631 521 L1203 523 L1007 519 L596 503 L419 486 L395 373 L995 417 L1403 416 L1682 401 Q1762 396 1814 366.5 Q1866 337 1887.5 313.5 Q1909 290 1916.5 231.5 Q1924 173 1917 105 Q1908 21 1895 -14 L1872 -82 Q1909 -149 1922 -158 L1987 -213 Q1962 -265 1953 -273 L1915 -311 Q1835 -259 1793 -211 L1719 -237 L1561 -264 L1220 -286 L993 -286 L726 -275 L361 -216 Q370 -163 371 -151 L375 -89 Q408 -99 447 -104 L427 251 L357 258 L288 -65 Q261 -191 254 -242 L247 -290 Q187 -284 130 -272 L139 -219 L193 84 L288 481 L182 476 L167 578 L118 588 L103 700 L86 1036 L200 1055 L214 993 L278 993 L232 1365 L133 1366 L134 1490 L167 1488 L440 1486 L1011 1489 ZM229 864 Q229 781 228 750 L227 725 L232 681 L235 653 L244 602 Q315 597 317 612 L338 681 L343 699 L376 864 L229 864 ZM362 1293 L402 1002 L955 1006 L939 1291 L922 1369 L362 1368 L362 1293 ZM571 -130 L779 -160 L994 -169 L1127 -167 L1509 -145 Q1706 -134 1730 -104 Q1754 -74 1766 -20 Q1778 34 1783 89.5 Q1788 145 1788.5 180.5 Q1789 216 1788.5 224 Q1788 232 1783 248 Q1778 264 1713 272 L1561 290 L1313 298 L993 298 L769 281 Q565 265 559 253 Q553 241 555 215 L556 199 L571 -130 Z" /><glyph glyph-name="uni5B89" unicode="&#x5b89;" d="M1103 1438 L1567 1401 Q1640 1395 1723.5 1368 Q1807 1341 1853.5 1305 Q1900 1269 1908 1244.5 Q1916 1220 1916.5 1168 Q1917 1116 1909.5 1106 Q1902 1096 1847 1097 Q1811 1097 1800.5 1104 Q1790 1111 1787 1125 L1787 1164 Q1785 1187 1762.5 1212.5 Q1740 1238 1704 1246 L1509 1286 L1074 1321 L1056 1318 L796 1311 L267 1276 Q269 1249 269 1246 L264 1198 L144 1197 L135 1384 Q134 1398 133.5 1416.5 Q133 1435 135.5 1440 Q138 1445 186 1451 Q234 1457 236 1457 Q256 1455 256 1448 L264 1407 L305 1404 L964 1434 Q953 1481 938 1533 L1070 1560 L1103 1438 ZM1074 1045 L1686 1010 L1681 1073 L1801 1078 L1806 994 L1931 990 Q1932 966 1936.5 932 Q1941 898 1933 890 L1870 890 L1805 891 L1812 672 Q1818 378 1822 319 L1839 -29 Q1902 -13 1916.5 -28 Q1931 -43 1927 -90 L1922 -153 L1846 -155 Q1847 -199 1846.5 -220 Q1846 -241 1846.5 -257.5 Q1847 -274 1835 -291 Q1823 -308 1726 -286 L1718 -173 L677 -297 Q559 -311 478 -288 Q397 -265 343.5 -206 Q290 -147 279 -90 L250 55 L239 395 L250 667 L254 680 L276 932 L125 934 L130 1049 L277 1049 Q283 1085 283.5 1096.5 Q284 1108 283.5 1143 Q283 1178 297 1184 L333 1181 L351 1184 Q414 1190 415 1148 Q415 1144 409 1126.5 Q403 1109 404 1088 L404 1054 Q732 1052 1074 1045 ZM359 286 L373 63 Q377 -3 401 -66 Q425 -129 451.5 -151.5 Q478 -174 555 -177 Q669 -182 1078 -131 L1718 -52 L1692 673 L1692 686 L1682 911 L1367 922 L1060 932 L393 932 L375 683 L369 669 L359 286 Z" /><glyph glyph-name="uni4FDD" unicode="&#x4fdd;" d="M49 1205 L443 1519 Q470 1496 473 1492 L509 1436 Q506 1461 506.5 1478 Q507 1495 517.5 1514.5 Q528 1534 608 1528 Q699 1520 810 1523 Q921 1526 1009 1527 Q1049 1527 1333 1525 Q1617 1523 1681.5 1518 Q1746 1513 1783 1494 Q1820 1475 1850 1435.5 Q1880 1396 1880 1325 L1878 1159 L1875 421 Q1874 387 1875 385 L1877 353 Q1877 343 1875 338 Q1870 325 1857 320.5 Q1844 316 1795 314 Q1747 311 1747 319 L1740 353 L1489 358 L1301 358 L1311 215 L1720 232 Q1803 235 1846 235 Q1866 234 1878 229.5 Q1890 225 1891.5 221 Q1893 217 1889 199 L1899 125 L1887 102 L1320 102 L1331 -3 L1848 -165 Q1877 -175 1883 -183.5 Q1889 -192 1889.5 -209 Q1890 -226 1884 -237 L1848 -312 L1611 -223 L1344 -151 Q1365 -206 1358.5 -223.5 Q1352 -241 1334.5 -259.5 Q1317 -278 1300.5 -288 Q1284 -298 1165 -306.5 Q1046 -315 1030.5 -290.5 Q1015 -266 1004 -215 Q993 -164 1038 -144 L1121 -161 L1212 -165 L1184 85 L1104 93 L808 84 L804 -124 L809 -270 Q802 -285 782.5 -299 Q763 -313 674 -287 L674 39 L670 79 Q626 81 603 73.5 Q580 66 551.5 64.5 Q523 63 538 155 L542 199 L780 215 L1176 223 Q1169 279 1166 305 Q1163 331 1156.5 342.5 Q1150 354 1074 340 L782 336 L661 309 L606 318 L573 589 L510 1403 L363 1268 L353 1090 L422 -171 L433 -248 Q430 -259 415 -276.5 Q400 -294 300 -280 L248 588 L218 1175 Q193 1162 154.5 1131.5 Q116 1101 113 1109 L85 1148 L49 1205 ZM645 1283 Q659 1021 671.5 879.5 Q684 738 697 650 L722 468 L1492 487 L1739 493 L1742 1152 Q1747 1239 1743.5 1290.5 Q1740 1342 1717.5 1366 Q1695 1390 1534 1399 L1097 1401 L906 1389 L744 1389 L640 1383 L645 1283 Z" /><glyph glyph-name="uni6BD4" unicode="&#x6bd4;" d="M167 1475 Q219 1483 229 1481 L294 1471 L279 1085 L702 1096 Q721 1046 719 1038 L708 960 L273 965 Q258 805 258 730 L273 154 Q249 -114 332.5 -159.5 Q416 -205 649 -65 Q677 -93 679 -117 L690 -192 Q532 -250 448 -281 Q364 -312 313 -308.5 Q262 -305 213.5 -262.5 Q165 -220 164 -117 L149 133 Q134 633 138 719 L167 1475 ZM929 1543 L1056 1543 L1029 1296 L1941 1412 L1953 1295 L1016 1154 Q983 916 964.5 755 Q946 594 931 368.5 Q916 143 959 21.5 Q1002 -100 1057 -134 Q1112 -168 1262 -164 L1666 -164 L1922 -148 L1927 -284 Q1215 -299 1105.5 -285.5 Q996 -272 947 -219.5 Q898 -167 871 -132.5 Q844 -98 826.5 -2 Q809 94 807 178 Q805 262 816 457.5 Q827 653 844 793 L929 1543 Z" /><glyph glyph-name="uni4FBF" unicode="&#x4fbf;" d="M75 1272 L305 1426 Q447 1521 454.5 1517.5 Q462 1514 494 1468 Q526 1422 500 1405 L357 1311 L348 738 L358 -23 L376 -287 Q320 -305 310 -301 L240 -288 L221 202 L228 1213 Q197 1202 164.5 1182.5 Q132 1163 131 1166 L75 1235 L75 1272 ZM531 616 L492 1316 L510 1326 L721 1312 L1259 1308 L1253 1392 Q1230 1390 1219 1390 L899 1401 L578 1396 L538 1401 Q525 1464 528 1480 L533 1533 L660 1533 L1093 1527 L1192 1521 L1757 1509 L1875 1509 Q1903 1484 1895 1463 L1877 1378 L1393 1385 L1393 1309 L1578 1297 Q1689 1289 1796 1269.5 Q1903 1250 1906.5 1189.5 Q1910 1129 1910 1126 L1870 619 L1873 607 L1870 443 L1883 251 L1884 27 Q1884 4 1861.5 2 Q1839 0 1804.5 6 Q1770 12 1761 16.5 Q1752 21 1747 33 Q1742 42 1744 47 L1749 78 L1434 87 Q1430 86 1428 85 Q1426 84 1424 81 L1432 -20 L1425 -48 L1768 -145 L1890 -184 L1852 -308 L1413 -181 Q1382 -216 1347 -245.5 Q1312 -275 1241 -291.5 Q1170 -308 1097 -299 L866 -278 L557 -237 L528 -234 L540 -102 L976 -168 Q1062 -173 1121 -177.5 Q1180 -182 1192 -173 L1255 -136 L1031 -77 L1072 46 L1293 -17 L1297 102 L836 100 L691 81 Q685 59 676 49 Q667 39 645 39 Q570 37 560.5 46.5 Q551 56 549 140 L537 510 L531 616 ZM630 1159 L663 637 L667 497 L1283 473 L1275 602 L1275 616 L1268 1183 L1110 1183 L1095 1184 L718 1186 L630 1178 L630 1159 ZM684 218 L920 224 L1290 225 L1287 345 L674 359 L679 264 L684 218 ZM1404 606 L1406 538 L1413 468 L1433 464 L1747 449 L1744 606 L1744 619 L1756 896 L1772 1115 Q1742 1150 1663 1159 L1488 1177 L1391 1181 L1393 1114 L1404 606 ZM1417 276 L1423 211 L1750 210 L1752 317 L1417 338 L1417 276 Z" /><glyph glyph-name="uni522B" unicode="&#x522b;" d="M282 1511 Q760 1513 901 1509 Q1042 1505 1061 1506 Q1077 1506 1101.5 1507.5 Q1126 1509 1133 1509 Q1174 1508 1222.5 1453 Q1271 1398 1268.5 1363.5 Q1266 1329 1265 1315 L1236 1080 L1212 625 L1212 422 Q1151 412 1124 412.5 Q1097 413 1088 419 L1065 438 L1038 444 L689 448 L465 444 Q447 388 449 371 L450 337 Q764 345 901.5 344 Q1039 343 1084 313 Q1129 283 1158 202 L1193 -68 Q1219 -199 1189 -267 Q1159 -335 895 -319 L887 -191 Q958 -195 1001 -185.5 Q1044 -176 1060 -158 Q1076 -140 1049 23 Q1022 186 1006 198.5 Q990 211 830.5 217 Q671 223 609 218 L425 205 Q394 -77 394 -170 L392 -301 Q340 -309 332 -306 L261 -294 Q270 -68 276 -15 L295 195 Q245 194 208.5 186.5 Q172 179 159 188 Q146 197 145 224 L149 263 Q150 299 154.5 306.5 Q159 314 199 318 L259 323 L318 328 L321 433 Q304 415 291.5 408 Q279 401 257 402 Q219 403 177 433 L147 1300 Q100 1502 125.5 1522 Q151 1542 188 1549 Q238 1557 251 1542 L282 1511 ZM272 1386 Q275 1219 276 1206 L303 570 Q894 570 973.5 569 Q1053 568 1067 579 Q1085 593 1083 660 Q1081 727 1093 862 Q1095 884 1104.5 1050.5 Q1114 1217 1123 1283.5 Q1132 1350 1120 1365 Q1109 1376 973.5 1390 Q838 1404 272 1386 ZM1454 1415 Q1450 1187 1448 1074 L1439 753 Q1434 529 1439 224 Q1441 73 1444 35 L1455 -142 L1327 -142 Q1321 -9 1319 66.5 Q1317 142 1314 331 Q1311 520 1314.5 663.5 Q1318 807 1327 1071 L1339 1428 Q1392 1423 1454 1415 ZM1789 1352 Q1789 1415 1781.5 1463.5 Q1774 1512 1778 1529.5 Q1782 1547 1786 1550 Q1790 1553 1844 1550 L1888 1548 Q1898 1542 1907 1521 Q1918 1491 1915 1422 L1920 1166 L1910 940 Q1907 871 1908 627 L1905 -43 Q1907 -231 1864.5 -271 Q1822 -311 1694 -325.5 Q1566 -340 1554.5 -296.5 Q1543 -253 1552 -215 Q1561 -177 1572 -167 Q1580 -160 1653.5 -177.5 Q1727 -195 1753 -178 Q1783 -158 1778.5 -71.5 Q1774 15 1776.5 75.5 Q1779 136 1779 758 L1789 1352 Z" /><glyph glyph-name="uni4E0D" unicode="&#x4e0d;" d="M320 1365 L132 1343 Q112 1337 107 1340 Q102 1343 101 1371 L98 1471 L650 1495 L1239 1483 L1707 1469 Q1917 1462 1925.5 1434.5 Q1934 1407 1919 1382 L1896 1337 L1503 1355 L1085 1367 Q1131 1253 1160 1164 Q1189 1075 1217 911 Q1245 747 1265 591 Q1285 435 1279 368 L1261 84 L1800 -102 L1863 -124 Q1910 -133 1913.5 -139 Q1917 -145 1909 -180 Q1891 -251 1884 -251 L1840 -260 L1244 -55 Q1226 -151 1202.5 -206 Q1179 -261 1109.5 -321.5 Q1040 -382 912 -365 Q853 -358 798 -337.5 Q743 -317 735.5 -305 Q728 -293 726.5 -284 Q725 -275 733 -233 Q740 -192 742.5 -186 Q745 -180 748 -177 Q759 -164 834.5 -216.5 Q910 -269 994 -227 Q1061 -194 1091 -127 Q1121 -60 1137 119 Q1153 298 1153 392 Q1152 501 1136 629.5 Q1120 758 1098.5 873.5 Q1077 989 1042 1100.5 Q1007 1212 971.5 1291.5 Q936 1371 890 1372 L521 1373 L454 1370 L379 646 L284 -220 Q274 -306 269.5 -307 Q265 -308 249 -307 L191 -306 L154 -293 L154 -270 L236 465 L320 1365 Z" /><glyph glyph-name="uni6D4B" unicode="&#x6d4b;" d="M259 -49 L237 -276 L109 -262 L194 469 L237 759 L357 743 L259 -49 ZM378 870 L80 942 L119 1062 L414 990 L378 870 ZM409 1303 L87 1391 L124 1514 L440 1418 L409 1303 ZM1473 706 L1487 1450 L1606 1451 L1602 1062 L1594 702 L1576 183 L1576 -62 L1446 -60 L1456 167 L1473 706 ZM1790 -171 L1790 172 L1780 638 L1808 1499 L1932 1502 L1907 957 L1901 701 L1908 42 Q1909 -90 1915 -157 Q1921 -224 1903 -251 Q1849 -332 1798 -298 L1610 -224 L1673 -104 L1790 -171 ZM692 1463 Q766 1482 848 1487 L930 1491 L938 1492 L979 1489 L1048 1492 L1195 1479 Q1242 1474 1290 1450.5 Q1338 1427 1367 1382.5 Q1396 1338 1393 1201 L1390 898 L1367 27 L1253 27 L1255 230 Q1258 374 1261 447 L1265 547 Q1277 853 1272 1127 L1270 1234 Q1269 1254 1267 1259 L1258 1275 L1225 1302 L1181 1322 L1095 1336 Q1023 1341 947 1342.5 Q871 1344 765 1323 Q659 1302 609 1281 Q609 947 610 896 L614 322 L614 189 L616 60 Q565 49 533.5 30.5 Q502 12 492 32 L487 758 L490 1489 Q538 1507 549 1505 L603 1499 L605 1446 L630 1453 L692 1463 ZM987 1234 Q990 1135 991 1086 L993 460 Q995 250 993 215 L984 84 Q1033 47 1060 31 L1297 -88 L1360 -123 L1377 -130 L1412 -156 Q1408 -194 1404 -210 L1377 -275 L1375 -279 L1360 -270 L938 -51 Q910 -88 860 -146 Q810 -204 717 -231 Q624 -258 592.5 -258.5 Q561 -259 475 -252 Q476 -184 477 -170 L480 -88 L509 -98 Q648 -107 740.5 -68 Q833 -29 853.5 63.5 Q874 156 877 209 Q880 262 882 657.5 Q884 1053 876 1121 L865 1220 Q879 1231 888 1234 L987 1234 Z" /><glyph glyph-name="uni5E38" unicode="&#x5e38;" d="M1874 22 L1879 20 Q1876 -37 1881 -127.5 Q1886 -218 1874 -247 Q1860 -279 1828.5 -302 Q1797 -325 1712 -316 Q1678 -313 1524 -274 L1554 -164 Q1628 -171 1676 -180 Q1724 -189 1732.5 -182 Q1741 -175 1746 -115 L1748 -74 L1747 254 L1556 299 L1205 326 L1063 330 L1005 330 L1021 -300 L896 -289 L883 331 L763 334 L387 301 L317 287 L325 -295 L204 -295 L204 452 L320 457 L326 423 L330 423 L728 447 L880 451 L875 521 Q704 521 626.5 519 Q549 517 472 520 Q407 510 377 530 Q347 550 347 604 L347 1012 Q347 1041 356 1083.5 Q365 1126 393 1127 L456 1138 L1313 1154 L1520 1148 Q1599 1145 1677.5 1109.5 Q1756 1074 1786 1047 Q1816 1020 1820.5 957 Q1825 894 1822 845 L1811 667 Q1806 600 1802.5 573 Q1799 546 1780 531 Q1760 515 1698 520 Q1636 525 1612 525 L1002 520 L1001 457 L1063 456 L1455 438 L1659 410 Q1801 390 1839.5 343.5 Q1878 297 1878 256 L1874 22 ZM466 647 L1063 645 L1676 647 L1688 842 Q1694 945 1674.5 965.5 Q1655 986 1600 998 L1457 1027 L1063 1032 L545 1018 Q481 1019 482 1007 L472 937 L466 647 ZM287 1204 L286 1063 L167 1060 L163 1269 L158 1363 L278 1368 L279 1333 L354 1341 L304 1494 L425 1520 L488 1358 L943 1352 L921 1530 L1036 1551 L1079 1363 L1549 1388 L1566 1525 L1686 1525 L1687 1383 Q1792 1362 1828 1334.5 Q1864 1307 1883 1268 Q1902 1229 1901 1190 L1901 1107 L1775 1107 Q1773 1151 1766.5 1183 Q1760 1215 1729 1252 Q1698 1289 1484.5 1256 Q1271 1223 908.5 1234 Q546 1245 472 1232 L287 1204 Z" /><glyph glyph-name="uni6668" unicode="&#x6668;" d="M167 624 L919 619 L1784 603 L1904 608 Q1908 561 1907 554 L1896 472 L1015 478 L725 493 L326 483 L292 216 L275 -111 Q266 -269 256 -279 Q246 -289 213 -287 Q163 -286 157 -281 L128 -264 L137 -234 L187 466 Q142 462 135.5 472.5 Q129 483 131 501 L135 598 L167 624 ZM1015 722 L318 729 L324 682 Q301 680 290 678 L265 673 L187 682 L154 1430 L151 1524 L287 1524 L287 1462 L422 1473 L1008 1489 L1583 1498 Q1802 1501 1857 1430.5 Q1912 1360 1911 1305 L1894 666 L1768 650 L1768 697 L1015 722 ZM300 1156 L601 1165 L870 1154 L1029 1160 L1657 1135 Q1741 1131 1742 1132 L1768 1143 Q1773 1195 1772 1222 L1768 1285 Q1767 1305 1761 1325 Q1755 1345 1674 1354 L1523 1369 L1012 1364 L762 1347 L517 1347 L347 1328 L292 1330 Q292 1282 291.5 1256 Q291 1230 293 1219 L300 1156 ZM305 1018 L312 864 L1012 848 L1662 825 L1775 829 Q1777 879 1776.5 897.5 Q1776 916 1774 946 Q1772 976 1766 992 Q1760 1008 1543 1014 L1029 1028 L637 1032 L305 1018 ZM1855 385 L1860 383 Q1868 332 1866 312.5 Q1864 293 1857 253 L1808 255 L652 283 L366 299 L371 415 L552 412 L1855 385 ZM1684 60 L1742 -14 L1925 -8 Q1934 -71 1935 -87 L1936 -134 L1804 -144 L1873 -248 L1737 -301 L1601 -65 Q1535 48 1518.5 53 Q1502 58 1467 59 L1019 68 L852 72 L624 66 L632 -123 Q632 -147 679.5 -153.5 Q727 -160 807 -113 L943 -33 L960 -30 Q1004 -98 1000.5 -122.5 Q997 -147 992 -155.5 Q987 -164 952 -182.5 Q917 -201 853.5 -244.5 Q790 -288 683 -287 Q596 -287 549.5 -243.5 Q503 -200 500 -118 L495 4 Q493 51 487 61 L345 67 Q339 69 334.5 73 Q330 77 333 119 L332 169 L343 197 L490 194 L1017 201 L1832 191 L1894 184 Q1891 142 1894 116.5 Q1897 91 1892 71 Q1887 51 1869 52 L1684 60 Z" /><glyph glyph-name="uni5403" unicode="&#x5403;" d="M1743 62 L1721 153 Q1785 166 1865 171 L1888 50 Q1909 -47 1921 -101.5 Q1933 -156 1930 -187 Q1926 -217 1899 -257.5 Q1872 -298 1684.5 -310.5 Q1497 -323 1280 -322.5 Q1063 -322 1013 -296 Q963 -270 927 -216.5 Q891 -163 894 -74 Q895 -10 931 77.5 Q967 165 1093 310 L1328 571 Q1479 743 1506 770 L1679 932 Q1757 1009 1746 1032 Q1737 1049 1637 1052 L1449 1061 L1156 1052 Q1006 1052 1004 1052 L914 1042 L914 1157 Q1100 1165 1542 1172 Q1695 1174 1771 1162 Q1847 1150 1878.5 1119.5 Q1910 1089 1913 1049.5 Q1916 1010 1903 985 Q1893 967 1853 932.5 Q1813 898 1752 828 L1449 509 Q1375 430 1288.5 328 Q1202 226 1097.5 84.5 Q993 -57 1046 -121 Q1072 -154 1137 -169 Q1202 -184 1479.5 -188 Q1757 -192 1773 -145 Q1780 -124 1768 -61 L1743 62 ZM1501 1304 L1183 1297 Q1051 1294 999.5 1241 Q948 1188 972 1184 Q897 1197 889 1233 L895 1189 L832 -27 L833 -302 Q781 -316 773 -314 L690 -307 L695 -270 L534 -270 L282 -265 L287 -302 Q228 -311 157 -299 L135 677 L117 1444 L119 1508 L248 1511 L248 1484 L550 1496 Q779 1505 831 1460 Q883 1415 884 1400 L897 1313 L972 1440 L1062 1577 L1177 1519 L1114 1426 L1318 1426 L1920 1411 L1920 1283 L1501 1304 ZM285 -140 L383 -136 L693 -140 L729 675 L762 1194 Q762 1202 763 1266 Q764 1330 749.5 1347.5 Q735 1365 675 1364 L250 1351 L248 1179 L285 -140 Z" /><glyph glyph-name="uni6301" unicode="&#x6301;" d="M332 593 L330 1118 L325 1302 L119 1285 Q93 1353 99 1370 L113 1429 L300 1438 Q310 1438 318 1449 L314 1548 Q320 1555 363.5 1558 Q407 1561 412 1561 Q441 1559 452 1548 L460 1443 L579 1441 Q611 1425 609 1364 Q606 1315 579 1300 L487 1312 L466 1302 L466 596 L482 171 L581 193 L597 56 L492 36 L489 -57 Q485 -181 456.5 -224.5 Q428 -268 385 -296 Q342 -324 297 -311 L166 -276 Q112 -262 106 -256 Q100 -250 98.5 -244 Q97 -238 108 -212 L125 -150 L141 -130 Q207 -140 259 -163.5 Q311 -187 325.5 -178 Q340 -169 346.5 -129.5 Q353 -90 353 -74 L351 14 L113 -35 Q79 44 82 75 L84 103 L353 145 L332 593 ZM1570 670 L1653 666 L1629 843 L1508 855 L1012 867 L681 867 L605 866 Q598 870 594.5 876.5 Q591 883 590 889 L593 932 L594 973 Q603 1001 627 1001 L969 992 L1008 995 L1163 996 L1163 1196 Q1163 1293 1145 1295 L1122 1299 L1008 1297 L852 1297 L687 1288 L649 1291 Q642 1336 641 1367 Q640 1398 653.5 1414.5 Q667 1431 788 1428 L1026 1422 L1152 1422 Q1150 1465 1144.5 1494.5 Q1139 1524 1147 1533 Q1154 1541 1208 1544.5 Q1262 1548 1268 1545 Q1284 1535 1289 1519.5 Q1294 1504 1295 1445 L1295 1419 L1815 1438 Q1871 1440 1887.5 1427 Q1904 1414 1906 1366.5 Q1908 1319 1879 1304 L1800 1306 L1297 1289 L1295 987 L1842 968 Q1894 966 1910 952 Q1926 938 1926.5 891 Q1927 844 1906 831 Q1897 825 1885 824 L1834 830 L1768 833 Q1765 797 1766 794 L1779 672 Q1815 669 1833 671 L1870 675 L1931 679 Q1943 643 1942 640 L1915 549 Q1848 545 1789 545 L1815 80 L1818 -43 Q1823 -222 1776 -263 Q1759 -278 1704 -301.5 Q1649 -325 1575 -326 Q1537 -327 1520 -323 Q1503 -319 1416.5 -283 Q1330 -247 1317 -237 L1251 -189 Q1226 -181 1223 -176 Q1220 -171 1219.5 -164.5 Q1219 -158 1223 -148 L1238 -120 Q1262 -67 1268 -63 Q1274 -59 1284 -59 Q1290 -60 1300 -66 L1356 -110 Q1385 -131 1506 -168.5 Q1627 -206 1658 -180.5 Q1689 -155 1691 -72 L1693 91 L1676 396 L1652 544 L1313 539 L1026 528 Q942 532 866 522 L722 516 Q648 512 613 511.5 Q578 511 571 517 Q564 523 561.5 585 Q559 647 581 644 L607 637 L1570 670 ZM821 491 L879 -156 L908 -311 Q841 -341 827 -333 L768 -310 L761 -221 L696 470 L821 491 Z" /><glyph glyph-name="uni695A" unicode="&#x695a;" d="M1417 1475 Q1413 1500 1410 1528.5 Q1407 1557 1414 1565 Q1421 1573 1479.5 1572.5 Q1538 1572 1544 1568 Q1561 1552 1559 1521 L1558 1473 L1863 1475 Q1896 1475 1899 1422 L1897 1384 Q1899 1352 1895 1341.5 Q1891 1331 1871 1331 L1557 1331 Q1568 1159 1569 1123 L1574 931 L1905 819 L1857 689 L1588 778 Q1584 710 1569 683.5 Q1554 657 1513.5 630 Q1473 603 1408 597.5 Q1343 592 1266 625 L1172 662 Q1180 695 1182 699 L1218 782 Q1267 764 1333.5 740.5 Q1400 717 1417 748.5 Q1434 780 1433 871 L1428 1128 L1423 1333 L1173 1329 L1135 620 L999 620 L1029 1138 L1046 1314 Q1005 1306 989 1316 Q973 1326 968 1347 L966 1383 Q961 1463 968.5 1468 Q976 1473 1004 1473 L1083 1468 L1198 1473 L1417 1475 ZM1899 259 L1748 270 Q1757 304 1757.5 333 Q1758 362 1733.5 392 Q1709 422 1574 432 L1444 448 Q1377 455 1084 462 L1083 231 L1878 212 Q1891 152 1888 139 L1878 78 L1373 98 L1087 100 L1093 -152 L1538 -169 L1800 -165 Q1876 -164 1884.5 -172.5 Q1893 -181 1894 -204 L1893 -219 L1891 -306 Q1158 -295 1004.5 -284.5 Q851 -274 304 -227 Q296 -264 291 -290.5 Q286 -317 268 -334 Q250 -351 157 -311 L241 432 Q128 424 123 429 Q118 434 119 498 L119 538 Q121 547 127.5 553.5 Q134 560 198 552.5 Q262 545 466 568.5 Q670 592 962 589 Q1794 579 1841.5 526.5 Q1889 474 1898 424 Q1907 374 1905 348 L1899 259 ZM319 -90 L942 -133 L937 462 L386 435 L319 -90 ZM512 1324 L333 1319 L272 631 L141 636 L187 1217 L191 1319 L130 1322 L131 1454 L493 1460 Q483 1509 484.5 1531.5 Q486 1554 494 1564 Q502 1574 558.5 1573.5 Q615 1573 615 1568 L638 1463 L852 1463 Q902 1463 911.5 1459 Q921 1455 935.5 1393 Q950 1331 913 1318 L850 1323 L656 1323 L671 929 L869 814 L816 689 L664 765 Q624 686 574 648 Q524 610 476 628 L329 662 L351 798 Q468 754 497 772 Q526 790 527 907 L528 1086 L512 1324 Z" /><glyph glyph-name="uni6B21" unicode="&#x6b21;" d="M1070 93 L1627 -55 L1804 -116 L1929 -168 L1882 -293 L1506 -165 L1047 -44 L1003 -136 L985 -170 Q820 -359 639 -321 L532 -304 L530 -177 Q621 -186 707.5 -181.5 Q794 -177 830.5 -142 Q867 -107 891.5 -54.5 Q916 -2 924 119 Q928 187 924 390 Q920 593 924 643 L954 1252 Q1045 1272 1065 1263 L1092 1252 Q1069 742 1070 631 L1070 93 ZM312 -320 L176 -304 L281 1072 L421 1057 L312 -320 ZM760 1327 L692 1048 L679 984 Q671 974 662 972 Q658 971 611.5 974 Q565 977 550.5 992.5 Q536 1008 540 1022 L673 1577 L809 1552 L794 1464 Q1171 1491 1336.5 1485 Q1502 1479 1668.5 1452.5 Q1835 1426 1881.5 1366.5 Q1928 1307 1928 1204 L1928 1056 Q1856 1028 1838 1034 L1782 1045 Q1784 1133 1781 1188.5 Q1778 1244 1756.5 1275.5 Q1735 1307 1643 1321 Q1551 1335 1427 1346 Q1303 1357 1270 1354 L760 1327 ZM551 1300 L188 1364 L121 1378 Q121 1398 121 1414 Q121 1430 126.5 1468 Q132 1506 155 1509 L182 1504 L403 1465 Q560 1437 562 1436 L579 1424 L551 1300 Z" /><glyph glyph-name="uni5230" unicode="&#x5230;" d="M232 1385 Q194 1386 160 1380.5 Q126 1375 120.5 1377 Q115 1379 113 1446.5 Q111 1514 116 1519.5 Q121 1525 156 1523 L576 1530 L847 1514 Q1009 1507 1055 1507.5 Q1101 1508 1114 1498 Q1137 1478 1130 1426 L1124 1373 Q960 1377 879 1383 L607 1403 L372 1401 Q359 1236 334 992 Q309 748 321 642.5 Q333 537 330.5 446 Q328 355 352 332 Q376 309 417 307 Q436 305 603 346.5 Q770 388 851 396.5 Q932 405 941.5 433 Q951 461 952 485 L945 607 Q944 613 946 739 Q948 865 932 1017 L915 1169 L905 1294 Q969 1303 984 1300 L1041 1289 Q1043 1208 1046 1169 L1072 857 Q1078 749 1074 599.5 Q1070 450 1086 364.5 Q1102 279 1095.5 246 Q1089 213 1083 215 L962 200 Q964 247 963 258 L957 310 L653 222 L654 131 L656 97 Q851 101 1067 112 Q1076 74 1077 70 L1083 -23 L1014 -21 L670 -26 L672 -76 L674 -142 Q909 -142 1072 -159 Q1074 -222 1071 -238 L1062 -285 Q715 -274 654 -277 L157 -295 L155 -165 L417 -156 Q532 -153 537 -142 L534 -86 L530 -22 L204 -25 Q186 35 188 49 L193 113 Q248 108 277 107 L413 102 L514 98 L519 192 Q441 165 345.5 168.5 Q250 172 215 351 Q180 530 188 607 L232 1385 ZM1264 1411 Q1319 1420 1332 1419 L1392 1414 Q1415 1128 1423 970.5 Q1431 813 1432 625 L1432 192 L1444 -91 Q1381 -103 1312 -97 Q1301 189 1300.5 277.5 Q1300 366 1302 685 Q1304 1004 1287 1168 L1264 1411 ZM1884 1504 Q1874 908 1873.5 602.5 Q1873 297 1891.5 51 Q1910 -195 1836.5 -255 Q1763 -315 1733 -299 L1486 -228 Q1489 -197 1494.5 -153 Q1500 -109 1521 -110 Q1526 -111 1573.5 -136 Q1621 -161 1703 -160 Q1725 -160 1742.5 -152 Q1760 -144 1751.5 130 Q1743 404 1746 625 L1757 1327 Q1720 1474 1756 1505 Q1798 1540 1884 1504 Z" /><glyph glyph-name="uni5F97" unicode="&#x5f97;" d="M95 764 L265 844 L487 944 L531 829 L335 745 L362 -280 L241 -290 L210 683 L141 656 Q112 704 109 718 L95 764 ZM610 667 L580 1406 L577 1473 Q582 1487 592 1492.5 Q602 1498 645 1503 Q688 1508 690 1505 L711 1469 Q1172 1489 1392 1488 Q1528 1487 1660 1474.5 Q1792 1462 1829 1418 Q1866 1374 1875 1345.5 Q1884 1317 1890 1190 L1916 531 L1790 520 L1778 557 L1663 571 L1043 590 L744 588 L717 546 L618 546 Q609 621 610 653 L610 667 ZM723 1045 Q907 1046 1000 1054 L1183 1069 L1570 1049 L1764 1044 L1763 1244 Q1762 1301 1733.5 1328 Q1705 1355 1434 1363 Q1154 1370 1052 1363 L801 1348 L710 1334 L723 1045 ZM737 725 L830 713 L1058 713 L1796 689 L1780 929 L1353 946 L1164 950 L1043 938 L728 923 Q726 883 725.5 842.5 Q725 802 730 772 L737 725 ZM1862 437 L1867 311 L1764 311 L1783 153 L1890 154 L1895 18 L1794 18 L1780 -138 Q1773 -215 1735.5 -249 Q1698 -283 1604 -286 Q1566 -288 1517 -284 Q1468 -280 1246 -206 L1283 -88 Q1371 -121 1425 -136.5 Q1479 -152 1552.5 -159.5 Q1626 -167 1643.5 -147.5 Q1661 -128 1665 -70 L1670 18 L1058 15 L874 7 L921 -269 L796 -264 L748 -1 L618 -2 L617 124 L1058 140 L1654 148 L1633 322 Q1017 330 968 327 L598 306 L597 436 Q893 446 1221.5 446.5 Q1550 447 1555 447 L1862 437 ZM141 1206 L99 1312 L503 1520 L555 1410 L141 1206 Z" /><glyph glyph-name="uni7684" unicode="&#x7684;" d="M144 652 L155 1155 Q158 1308 150.5 1315.5 Q143 1323 124.5 1336 Q106 1349 102.5 1359 Q99 1369 125 1403 Q194 1488 272 1601 Q283 1612 290.5 1614 Q298 1616 331.5 1592.5 Q365 1569 368 1562 L377 1538 Q360 1501 357 1498 L304 1429 L541 1446 Q567 1447 673.5 1439 Q780 1431 828.5 1419 Q877 1407 889 1387 L933 1323 L995 1461 L1046 1573 Q1061 1580 1073 1582 Q1085 1584 1121 1565.5 Q1157 1547 1166 1525 Q1175 1503 1127 1434 L1222 1434 L1465 1439 L1656 1426 Q1772 1418 1828.5 1380 Q1885 1342 1897.5 1284.5 Q1910 1227 1901 1131 Q1894 1066 1889 896.5 Q1884 727 1885 588 L1891 171 Q1892 44 1891 -47 Q1888 -179 1837.5 -260.5 Q1787 -342 1627 -334 Q1460 -327 1444 -307 Q1428 -287 1431.5 -234.5 Q1435 -182 1469 -176 Q1474 -176 1505.5 -187 Q1537 -198 1580.5 -203 Q1624 -208 1665 -209 Q1706 -210 1733 -181 Q1753 -160 1758 -100 Q1763 -40 1764 55 L1759 651 Q1757 785 1759 873 Q1760 968 1764.5 1053.5 Q1769 1139 1769 1173 Q1767 1257 1739.5 1282 Q1712 1307 1627 1311 L1406 1321 L1085 1324 Q1057 1284 1045 1259 Q1033 1234 1027 1224.5 Q1021 1215 1004 1208.5 Q987 1202 948 1230 L933 779 L925 648 L928 634 L895 -194 Q892 -247 887.5 -257 Q883 -267 841 -276 Q779 -291 778 -269 L775 -251 L733 -243 L336 -241 L272 -234 L277 -297 L150 -297 L144 652 ZM261 742 L262 650 L261 625 Q264 600 263.5 569.5 Q263 539 269 532 L275 523 L728 503 Q764 501 804 509 L802 611 L811 647 L818 973 Q818 1017 819.5 1142 Q821 1267 808.5 1282.5 Q796 1298 693.5 1314.5 Q591 1331 517 1329 Q440 1326 280 1296 L261 742 ZM266 55 L270 -113 L590 -125 L784 -136 L803 266 L803 398 L702 398 L307 419 L264 411 L266 55 ZM1311 -192 Q1217 -210 1199.5 -198 Q1182 -186 1180 -146 L1169 2 L1155 255 Q1153 281 1136.5 504 Q1120 727 1093 930 Q1066 1133 1058 1161 Q1050 1189 1058 1200 Q1066 1212 1096 1217 L1144 1220 L1178 1225 Q1185 1185 1192 1144 Q1199 1103 1227.5 806.5 Q1256 510 1257 503 L1281 166 L1307 -134 L1311 -192 Z" /><glyph glyph-name="uni5B9A" unicode="&#x5b9a;" d="M1049 1491 Q1050 1513 1042.5 1535 Q1035 1557 1037 1560 Q1041 1566 1068 1567.5 Q1095 1569 1126.5 1574.5 Q1158 1580 1163 1576 L1173 1536 L1182 1494 L1510 1487 L1755 1467 Q1883 1456 1900 1413.5 Q1917 1371 1922.5 1303.5 Q1928 1236 1921 1227 Q1910 1214 1803 1220 Q1798 1252 1797.5 1263.5 Q1797 1275 1797.5 1297 Q1798 1319 1789.5 1330 Q1781 1341 1746 1345 L1564 1365 L1008 1381 L988 1376 L535 1367 L261 1347 L235 1347 Q234 1312 235 1308 L240 1227 Q208 1226 199 1223.5 Q190 1221 187 1221 L125 1222 L110 1387 Q101 1494 107 1497 Q113 1500 136 1504 Q219 1515 221 1504 L229 1473 L988 1492 L1049 1491 ZM1002 1150 L1623 1128 Q1803 1121 1914 1122 L1914 1007 L1045 1034 L1051 670 L1046 653 L1045 330 L1817 316 Q1860 315 1874.5 307.5 Q1889 300 1890 278 L1889 268 L1881 189 L1445 204 L1086 203 L1042 198 L1037 -148 L1424 -178 L1725 -194 L1864 -199 Q1889 -225 1884 -264 L1879 -324 Q1572 -316 1523 -311 L1031 -274 Q659 -250 288 -211 Q287 -264 292 -294.5 Q297 -325 288 -339 Q279 -353 178 -332 Q178 -304 178 -290 L171 -181 L160 34 L156 655 L142 925 L141 938 Q139 987 163 985 L172 982 L262 966 L278 593 L278 49 L289 -74 Q430 -108 649 -127 L917 -153 L924 497 L927 658 L932 669 L926 1037 L692 1046 L157 1038 Q145 1100 147 1116 L150 1168 L176 1168 L988 1156 L1002 1150 Z" /><glyph glyph-name="uni4E1C" unicode="&#x4e1c;" d="M1014 -313 Q926 -315 915 -312 L733 -284 L466 -231 Q413 -221 408 -211 L414 -160 Q419 -101 431 -96 Q445 -90 444 -88 L441 -84 L472 -99 L630 -138 Q695 -146 764 -163 Q775 -162 781 -161 L874 -177 L914 -177 L961 -179 L973 -175 Q975 -180 977 -180 L988 -171 L1004 -166 L1008 -149 Q1013 -79 1012 -66 L1001 39 L391 52 L330 -298 Q324 -330 309 -331 Q294 -332 278 -328 L253 -326 Q185 -320 194 -293 L205 -272 L262 11 L266 56 Q176 60 156 72 Q136 84 124 180.5 Q112 277 112 392 Q112 507 118 630 Q124 753 143 858 L232 1361 L147 1355 L154 1490 L225 1486 L269 1492 L291 1570 L426 1544 L410 1497 L472 1497 L1037 1507 Q1387 1513 1609 1502 Q1831 1491 1922 1492 Q1941 1430 1938 1415 L1930 1358 Q1709 1367 1461 1376 L1104 1376 L371 1362 L289 937 Q277 879 255 670 Q233 461 235 399 Q235 369 245 262 L251 195 Q266 178 269 179 L329 178 Q582 168 832 158 L980 162 L933 382 Q931 389 957 395 L1027 414 L1059 414 L1111 157 Q1259 155 1334 153 L1685 142 Q1864 141 1874 141 L1920 140 L1922 26 L1708 20 L1125 34 L1130 -26 L1142 -29 Q1343 -61 1607 -103 L1889 -155 L1923 -166 Q1924 -212 1912 -244 Q1900 -276 1886 -279 Q1872 -282 1817 -271 L1525 -218 L1142 -150 Q1120 -245 1103 -253 L1014 -313 Z" /><glyph glyph-name="uni5BF9" unicode="&#x5bf9;" d="M196 602 L176 1029 L179 1401 L135 1405 L142 1544 L361 1547 Q417 1547 446 1546 Q458 1545 528.5 1550 Q599 1555 861 1532 L892 1530 Q1014 1526 1060.5 1502 Q1107 1478 1109.5 1432.5 Q1112 1387 1108.5 1353 Q1105 1319 1100 1224 L1066 602 L1035 124 Q1027 7 1006 -22 L966 -86 L1078 -260 Q1044 -289 972 -335 L894 -234 L848 -194 Q789 -215 722.5 -234 Q656 -253 612 -261 Q568 -269 483 -264 L132 -265 L123 -136 L220 -130 L192 584 L196 602 ZM295 1062 L314 602 L311 547 L338 -134 L596 -128 L650 -117 L867 -26 L909 143 L942 602 L974 1384 L891 1394 L412 1404 L297 1406 L295 1062 ZM1327 588 L1268 63 L1251 -180 L1129 -157 L1139 -87 L1211 588 L1267 1184 Q1271 1231 1277.5 1235.5 Q1284 1240 1291 1241 Q1312 1241 1351.5 1230 Q1391 1219 1390.5 1204.5 Q1390 1190 1386.5 1180 Q1383 1170 1373 1061 L1327 588 ZM1729 602 L1712 1085 L1721 1279 L1266 1295 L1133 1297 Q1130 1324 1130.5 1342.5 Q1131 1361 1133 1368 L1147 1428 L1286 1425 L1403 1426 L1460 1421 L1710 1415 Q1704 1453 1705 1459 L1705 1540 L1825 1523 L1829 1416 Q1846 1417 1865 1416.5 Q1884 1416 1889 1407.5 Q1894 1399 1894 1390 L1893 1379 L1884 1277 L1839 1275 L1834 963 L1848 602 L1845 588 L1856 257 L1845 19 Q1841 -53 1825.5 -148 Q1810 -243 1778.5 -272.5 Q1747 -302 1674.5 -318 Q1602 -334 1557 -322 L1447 -299 Q1436 -246 1439 -235 L1449 -171 L1595 -178 L1650 -173 Q1685 -170 1700 -161 Q1715 -152 1719 -87 L1737 231 L1729 588 L1729 602 Z" /><glyph glyph-name="uni591A" unicode="&#x591a;" d="M367 -196 L315 378 L447 391 L495 -196 L1515 -217 Q1718 -222 1751.5 -174.5 Q1785 -127 1786 -42.5 Q1787 42 1787 77 L1777 433 L1736 454 L1492 483 L1146 512 L664 515 L448 507 L336 495 Q294 453 262 393 Q230 333 208.5 332.5 Q187 332 110 412 L261 652 L331 756 L435 689 L383 625 L1269 610 L1753 575 Q1774 573 1817.5 546.5 Q1861 520 1881.5 500 Q1902 480 1904 405 L1914 -20 Q1917 -167 1876 -220.5 Q1835 -274 1810 -276 L1557 -334 L1145 -336 L488 -323 L299 -305 Q180 -308 173 -293 Q166 -278 174 -219 Q178 -181 184 -174 L296 -192 L331 -190 L367 -196 ZM370 895 L339 1117 L326 1247 L448 1263 Q475 1030 493 945 L507 875 Q618 861 879.5 843.5 Q1141 826 1212 827 L1467 841 Q1629 847 1687 877 Q1745 907 1765 944.5 Q1785 982 1787 1200 L1791 1288 Q1791 1311 1783 1321.5 Q1775 1332 1744 1336 L1539 1358 L1149 1373 L645 1363 L364 1352 Q333 1307 299 1247 Q265 1187 246 1188.5 Q227 1190 145 1255 L354 1604 L479 1562 L430 1484 L1605 1482 Q1611 1481 1700.5 1468.5 Q1790 1456 1817 1448 Q1844 1440 1875 1413.5 Q1906 1387 1914 1373.5 Q1922 1360 1921.5 1333.5 Q1921 1307 1921.5 1277.5 Q1922 1248 1920 1228 L1897 1017 Q1881 876 1856 830.5 Q1831 785 1803 783 L1639 742 L1232 714 L837 724 Q719 734 602.5 746.5 Q486 759 408.5 764 Q331 769 289.5 777.5 Q248 786 237.5 800.5 Q227 815 225 853.5 Q223 892 232.5 900 Q242 908 291 904 L370 895 Z" /><glyph glyph-name="uni5C14" unicode="&#x5c14;" d="M616 -177 L677 -55 Q758 -110 810 -130 Q855 -149 918 -163 Q940 -161 970 -166 L984 -161 Q992 -155 998.5 -148 Q1005 -141 1008 -108 L1028 120 Q1028 129 1028 137 L1020 553 L1017 579 L1017 602 L989 1193 L984 1272 L969 1360 L441 1322 L319 1323 L244 1186 Q163 1188 146 1199.5 Q129 1211 127.5 1222.5 Q126 1234 139 1255 Q185 1331 197.5 1365.5 Q210 1400 213 1406 L242 1459 Q263 1514 270 1518.5 Q277 1523 326.5 1509 Q376 1495 383 1486 Q391 1474 389 1467 L386 1451 L393 1439 L452 1449 L795 1463 L1036 1475 Q1174 1483 1229.5 1481 Q1285 1479 1441 1466 Q1597 1453 1717.5 1426 Q1838 1399 1876 1364 Q1914 1329 1914 1302 L1914 1132 Q1851 1111 1832 1114 L1793 1118 Q1790 1171 1789.5 1211.5 Q1789 1252 1775.5 1276 Q1762 1300 1649 1318 L1434 1351 L1106 1373 L1133 974 L1140 602 L1142 583 L1151 46 L1202 35 Q1234 25 1250 21 L1445 -47 Q1479 -59 1580.5 -88 Q1682 -117 1745 -137 L1890 -188 L1920 -198 Q1918 -242 1915 -248 L1886 -316 L1143 -75 Q1123 -214 1069.5 -269 Q1016 -324 958.5 -313.5 Q901 -303 854.5 -286 Q808 -269 736.5 -246 Q665 -223 643 -201 L616 -177 ZM173 605 L297 1260 L392 1240 L412 1213 L290 602 L288 579 L256 299 L243 -13 L237 -279 Q221 -287 180.5 -290 Q140 -293 128 -277.5 Q116 -262 116 -233.5 Q116 -205 118 -164 L149 399 L169 581 L173 605 Z" /><glyph glyph-name="uni996D" unicode="&#x996d;" d="M1019 1106 Q985 1110 946 1097 Q919 400 918 212 L913 -289 Q802 -312 790.5 -300 Q779 -288 780 -232 L792 661 L826 1287 L818 1421 Q817 1442 817.5 1453.5 Q818 1465 818 1470 L817 1476 Q811 1526 860 1525 L1016 1521 L1860 1483 Q1901 1481 1907 1474.5 Q1913 1468 1913 1421 Q1912 1356 1903 1352.5 Q1894 1349 1853 1352 L1550 1370 L1235 1384 L1083 1387 L999 1385 L964 1381 L961 1241 L978 1240 L1035 1253 L1310 1274 Q1459 1277 1639.5 1268.5 Q1820 1260 1858.5 1209 Q1897 1158 1897.5 1127.5 Q1898 1097 1898 1092 L1879 770 L1858 125 Q1843 -19 1814 -55 L1752 -142 L1929 -212 Q1907 -284 1895 -301 L1868 -342 L1792 -300 L1619 -232 L1547 -259 L1343 -281 L1084 -278 Q1021 -268 969 -269 Q971 -205 974 -190 L984 -128 Q1053 -132 1122 -143 Q1087 -65 1072 -13.5 Q1057 38 1047.5 151 Q1038 264 1034 468 L1019 1106 ZM1755 1075 L1748 1114 L1528 1149 L1305 1147 L1170 1131 Q1154 806 1155.5 693 Q1157 580 1163 428.5 Q1169 277 1178.5 161 Q1188 45 1211 -13 L1258 -148 L1405 -143 Q1545 -139 1608 -97 Q1671 -55 1699.5 20.5 Q1728 96 1726.5 244.5 Q1725 393 1737 658 L1755 1075 ZM279 1301 L186 1063 L58 1123 L109 1243 L200 1489 L226 1558 Q294 1541 358 1514 L329 1439 L373 1444 L459 1443 Q550 1441 612.5 1431 Q675 1421 713 1381.5 Q751 1342 763.5 1292.5 Q776 1243 777 1207 L779 1143 L645 1136 Q641 1186 640.5 1215.5 Q640 1245 630.5 1263 Q621 1281 585 1292 Q549 1303 495.5 1301 Q442 1299 418 1301 L354 1305 L279 1301 ZM364 656 L360 1124 L369 1199 L494 1183 L489 1091 L482 880 L484 641 L483 477 L507 -73 L697 -14 L737 -132 L531 -204 L378 -263 L316 -287 Q299 -285 273 -229 L254 -189 Q302 -155 314 -151 L374 -129 L378 -84 L360 389 L364 656 Z" /><glyph glyph-name="uni5206" unicode="&#x5206;" d="M572 1094 Q539 992 485.5 752.5 Q432 513 408 400 Q384 287 352 96 L301 -222 L285 -321 L157 -303 Q164 -262 168 -241 L227 110 Q259 296 299.5 491.5 Q340 687 434 1091 L350 1081 L371 1213 Q712 1220 764 1218 L1377 1201 L1481 1190 Q1654 1171 1704.5 1122 Q1755 1073 1758 1037 L1783 638 L1784 483 L1791 78 Q1796 -213 1749.5 -258 Q1703 -303 1686 -311 Q1669 -319 1613 -329 Q1557 -339 1543 -337 L1308 -320 Q1267 -318 1284 -270 L1301 -182 L1448 -198 Q1589 -214 1625 -190 Q1661 -166 1657 52 L1657 85 L1650 649 L1633 966 L1611 1029 Q1429 1070 1402 1071 L1054 1094 L912 1096 L572 1094 ZM224 950 Q141 962 124 987 L110 1005 L245 1299 L308 1450 Q366 1445 377 1440 L434 1414 L350 1216 Q316 1135 298 1097 L267 1036 L224 950 ZM930 1497 L1393 1474 Q1551 1466 1630 1433.5 Q1709 1401 1831.5 1297.5 Q1954 1194 1936 1144 Q1927 1120 1892 1092.5 Q1857 1065 1835 1067 Q1825 1067 1815 1073 Q1805 1079 1782 1139 Q1759 1199 1651.5 1264.5 Q1544 1330 1449 1338 L1198 1358 Q1020 1369 914.5 1367 Q809 1365 737 1367.5 Q665 1370 611.5 1361.5 Q558 1353 551.5 1361.5 Q545 1370 549 1434 L554 1492 Q710 1503 930 1497 Z" /><glyph glyph-name="uni611F" unicode="&#x611f;" d="M1445 611 L1870 1100 L1964 1015 L1499 478 Q1522 442 1541 424.5 Q1560 407 1619.5 387.5 Q1679 368 1778 425 L1919 499 L1977 377 Q1850 293 1769.5 275 Q1689 257 1595.5 262.5 Q1502 268 1464 314 L1408 372 L1260 201 L1165 291 L1344 497 Q1333 523 1315.5 572.5 Q1298 622 1280.5 754 Q1263 886 1260 1011 L1260 1317 L318 1307 L310 1182 L1119 1180 L1108 1032 L306 1050 L271 345 L135 351 L171 1307 L101 1306 L104 1440 L1264 1444 L1260 1576 L1394 1577 L1396 1437 L1692 1436 L1663 1550 L1783 1572 L1829 1430 L1945 1434 L1940 1296 L1389 1311 Q1391 1110 1396.5 983.5 Q1402 857 1413.5 769.5 Q1425 682 1433 656 L1445 611 ZM412 1000 L537 1000 L543 963 Q769 979 773 980 Q985 992 1026 944.5 Q1067 897 1070 843 L1092 381 L946 365 L948 418 Q814 408 628.5 389.5 Q443 371 438 375 Q414 390 410.5 417.5 Q407 445 407 555 L407 826 L412 1000 ZM540 515 L941 529 Q946 600 946 635 L936 778 Q933 833 920 845 Q907 857 857 857 L700 857 L536 835 L540 515 ZM1059 304 L1154 -50 L1031 -88 L936 276 L1059 304 ZM545 302 L678 317 Q691 193 698.5 87.5 Q706 -18 726 -65.5 Q746 -113 777.5 -142 Q809 -171 892 -179 Q975 -187 1108.5 -181 Q1242 -175 1293 -166 L1415 -139 Q1488 -125 1492 -123 L1560 -97 L1587 -232 Q1543 -244 1418 -270 Q1293 -296 1174.5 -305.5 Q1056 -315 893.5 -308.5 Q731 -302 682.5 -259 Q634 -216 606 -99 Q578 18 567 121 L545 302 ZM1613 197 L1724 229 L1836 -210 L1718 -236 L1613 197 ZM365 283 L418 -252 L272 -275 L229 271 L365 283 Z" /><glyph glyph-name="uni66F4" unicode="&#x66f4;" d="M304 1242 Q726 1287 870 1290 L1069 1295 L1053 1392 Q864 1393 808.5 1392 Q753 1391 500 1383 L139 1370 Q135 1442 136 1469 L137 1494 Q264 1500 457 1502 L1185 1513 Q1488 1514 1944 1497 Q1948 1461 1948 1457 L1942 1370 L1200 1392 L1218 1297 Q1476 1283 1625 1258.5 Q1774 1234 1829.5 1176.5 Q1885 1119 1897.5 1045.5 Q1910 972 1909 859 L1906 636 Q1904 572 1899.5 425.5 Q1895 279 1896.5 206.5 Q1898 134 1887.5 119 Q1877 104 1798 116 Q1772 119 1765 127 L1747 155 L1635 159 L1305 171 Q1302 100 1300 87 L1288 3 Q1406 -25 1465 -40 L1911 -164 L1953 -174 L1904 -299 L1744 -252 L1497 -177 L1236 -113 Q1210 -153 1184.5 -185.5 Q1159 -218 1090.5 -261.5 Q1022 -305 786 -315 Q550 -325 293 -289 L147 -269 L164 -138 Q360 -174 492.5 -182 Q625 -190 778 -188.5 Q931 -187 986.5 -165.5 Q1042 -144 1051 -133 L1105 -77 L687 3 L706 116 L1152 36 Q1167 97 1168 111 L1174 183 L278 160 L278 119 L147 124 Q156 858 169 1170 L174 1295 L304 1295 L304 1242 ZM281 288 L1177 305 Q1177 401 1177 415 L1171 610 Q822 634 289 647 L281 288 ZM287 771 Q810 757 1148 739 Q1125 983 1110 1062 L1089 1176 Q953 1180 823.5 1178.5 Q694 1177 299 1120 L287 771 ZM1288 730 L1779 688 L1777 881 Q1775 1051 1725.5 1103 Q1676 1155 1236 1170 Q1264 976 1268 934 L1288 730 ZM1315 291 Q1543 282 1765 285 L1774 570 L1299 610 Q1309 466 1310 434 L1315 291 Z" /><glyph glyph-name="uni529F" unicode="&#x529f;" d="M388 642 L390 1366 L137 1350 Q112 1352 101.5 1360 Q91 1368 99 1422 Q107 1476 116 1486 Q122 1493 191 1485.5 Q260 1478 325 1480 L818 1493 L799 1493 L865 1490 Q925 1474 903 1411 L887 1358 L723 1369 L512 1359 L507 779 L510 642 L524 -12 L538 -146 Q578 -138 636 -128 Q694 -118 729 -107.5 Q764 -97 797 -107 Q830 -117 830 -192 L830 -218 L339 -308 L155 -345 Q139 -300 139 -291 L134 -217 L407 -165 L388 642 ZM1046 1350 Q967 1335 956 1340 Q927 1350 937 1420 L943 1474 Q994 1481 1057 1481 L1065 1574 Q1141 1577 1168.5 1575.5 Q1196 1574 1204 1565 Q1212 1556 1199 1508 L1193 1487 L1299 1487 L1495 1492 L1704 1500 Q1765 1502 1822 1481 Q1879 1460 1896.5 1428 Q1914 1396 1919.5 1366.5 Q1925 1337 1924 1286 L1911 838 L1899 -10 Q1896 -162 1891 -210.5 Q1886 -259 1851 -293 Q1816 -327 1651 -319 L1513 -313 Q1509 -280 1505 -237.5 Q1501 -195 1516 -184 Q1531 -173 1602.5 -179.5 Q1674 -186 1709.5 -191.5 Q1745 -197 1757 -182 Q1764 -174 1764 -136 L1769 -23 L1768 107 L1779 554 L1785 886 L1790 1118 L1795 1239 Q1795 1274 1792 1306 Q1788 1339 1771 1359.5 Q1754 1380 1495 1371 L1313 1362 L1184 1358 L1141 975 L1094 469 L1046 -121 L1025 -327 Q921 -334 908 -329 L891 -324 L920 -95 L993 823 L1046 1350 Z" /><glyph glyph-name="uni6545" unicode="&#x6545;" d="M1626 -185 Q1598 -211 1560 -240 Q1522 -269 1408.5 -297.5 Q1295 -326 920 -325 L915 -194 Q1043 -195 1128 -190 Q1097 -138 1082.5 -106 Q1068 -74 1044.5 21 Q1021 116 1011.5 183 Q1002 250 998 337 Q994 424 994 502 L999 782 Q1000 978 1002 989 L1019 1171 L1046 1184 L1060 1185 Q1126 1182 1133.5 1173.5 Q1141 1165 1140 1137 L1131 1007 Q1128 974 1129 835 L1125 596 Q1123 468 1130 356 Q1137 220 1157 120.5 Q1177 21 1203 -36.5 Q1229 -94 1279 -179 Q1385 -170 1447 -142 Q1509 -114 1547 -70 Q1585 -26 1613 57.5 Q1641 141 1656 287 Q1671 433 1677.5 632 Q1684 831 1684 998 L1684 1270 L1035 1266 Q1016 1221 986 1163.5 Q956 1106 956 1108 L915 1139 L852 1176 L1009 1537 L1124 1479 L1093 1399 L1899 1400 Q1904 1371 1910.5 1332 Q1917 1293 1899 1278.5 Q1881 1264 1815 1270 Q1815 902 1811 726.5 Q1807 551 1797.5 402.5 Q1788 254 1768 137.5 Q1748 21 1726 -27 L1706 -72 Q1724 -83 1740 -92 Q1756 -101 1792.5 -125.5 Q1829 -150 1847.5 -160.5 Q1866 -171 1879 -181.5 Q1892 -192 1896.5 -208 Q1901 -224 1877 -257 L1836 -315 Q1720 -250 1700 -236 L1662 -209 L1626 -185 ZM167 1217 Q207 1240 215 1238 L287 1228 L286 1167 Q332 1167 364 1170.5 Q396 1174 417 1172 Q438 1170 459 1170 L470 1329 L236 1329 L162 1338 L166 1440 L209 1437 L471 1437 L481 1562 L601 1557 L596 1442 L775 1427 L878 1422 Q892 1368 886 1360 L856 1308 L721 1306 L596 1312 Q592 1246 589 1172 Q691 1170 740.5 1149 Q790 1128 832.5 1070.5 Q875 1013 872 937 L871 921 L856 625 L857 -205 L857 -288 L806 -288 Q742 -291 742 -293 L736 -247 L465 -253 L287 -266 Q288 -301 279 -313.5 Q270 -326 200 -311 Q181 -307 174 -301.5 Q167 -296 163.5 -285.5 Q160 -275 157 -51 L151 357 L162 642 L167 1217 ZM272 312 L279 -66 L279 -148 L735 -136 L732 655 L748 892 Q748 898 746 945 Q744 992 706.5 1026 Q669 1060 406 1061 Q351 1061 283 1050 L279 642 L272 312 Z" /><glyph glyph-name="uni8FC7" unicode="&#x8fc7;" d="M171 -278 L277 -10 L295 73 L303 291 L299 320 L209 716 L213 737 L216 858 L345 1111 L340 1139 L117 1149 Q111 1171 111 1188 Q111 1205 140 1275 Q249 1273 304.5 1270.5 Q360 1268 401 1263.5 Q442 1259 469.5 1242.5 Q497 1226 502 1201.5 Q507 1177 496 1155 Q485 1133 428.5 1024 Q372 915 368 886 L347 777 L349 715 L402 495 L443 350 Q444 340 448.5 273 Q453 206 451 188 L439 138 L388 -97 L856 -112 L1042 -111 L1291 -119 L1746 -148 L1917 -165 Q1915 -211 1914 -217 L1899 -299 L1468 -256 L1046 -251 L1026 -247 L662 -242 L390 -244 L326 -251 Q317 -279 315 -281 L275 -337 Q214 -327 206 -315 L171 -278 ZM714 737 Q797 1037 849 1248 Q911 1248 987 1244 Q949 1133 947 1124 L841 736 L751 317 L714 70 Q704 6 692 4.5 Q680 3 663 7 L600 14 L578 26 L658 479 L714 737 ZM535 1300 Q526 1382 525 1398.5 Q524 1415 534.5 1423 Q545 1431 569 1432 L1042 1434 L1621 1419 L1595 1512 Q1620 1523 1668.5 1529 Q1717 1535 1726 1529 L1746 1515 L1757 1417 Q1797 1406 1846 1406 Q1860 1363 1861 1344.5 Q1862 1326 1854.5 1302.5 Q1847 1279 1837.5 1280 Q1828 1281 1821 1282.5 Q1814 1284 1757 1289 L1760 1154 L1773 872 L1788 738 L1809 361 L1813 309 Q1822 184 1806.5 97.5 Q1791 11 1759.5 -17 Q1728 -45 1694 -60 Q1660 -75 1623 -74 Q1579 -74 1438 -22 Q1449 43 1456 57 L1482 119 Q1521 88 1569.5 73 Q1618 58 1634 61 Q1670 66 1674.5 121.5 Q1679 177 1679 230 L1677 515 L1660 737 L1624 1198 L1613 1296 L801 1308 L535 1300 ZM439 1390 L337 1298 Q273 1386 195 1490 Q216 1515 228 1524 Q240 1533 270 1545.5 Q300 1558 310 1547 L439 1390 Z" /><glyph glyph-name="uni597D" unicode="&#x597d;" d="M175 625 L170 1266 L170 1351 L82 1355 Q81 1406 82 1417 L87 1475 L171 1470 Q154 1558 171.5 1565.5 Q189 1573 241 1572.5 Q293 1572 293 1569 L309 1463 L798 1451 Q797 1469 795 1505.5 Q793 1542 804.5 1551 Q816 1560 867.5 1556 Q919 1552 919 1548 L925 1444 L972 1444 L975 1331 L914 1334 L911 606 L919 -117 L995 -109 L1006 -229 L927 -240 L927 -334 L796 -345 L799 -257 L518 -298 Q449 -309 401.5 -307 Q354 -305 309.5 -281.5 Q265 -258 240 -235 Q215 -212 197 -150 Q179 -88 178 96 L175 625 ZM294 376 L297 201 L310 -49 Q314 -135 339 -157 Q364 -179 421 -174 L581 -160 L803 -130 L795 624 L797 1264 L793 1339 Q507 1343 303 1347 L291 624 L294 376 ZM1672 223 Q1593 412 1536 533 Q1479 654 1409 761 L1346 856 Q1383 879 1414.5 907 Q1446 935 1451 928 L1484 889 L1662 1099 Q1696 1139 1745.5 1232 Q1795 1325 1792 1349.5 Q1789 1374 1743 1383 L1580 1412 Q1529 1420 1335 1422.5 Q1141 1425 1086 1412 Q1031 1399 1018 1402 Q1003 1404 996 1412 L989 1475 Q985 1492 986 1493 Q986 1508 1004.5 1518.5 Q1023 1529 1065 1530 L1169 1536 L1480 1538 L1679 1520 Q1839 1505 1882.5 1451.5 Q1926 1398 1925.5 1341.5 Q1925 1285 1905 1248 L1833 1117 L1560 786 Q1619 679 1651.5 612.5 Q1684 546 1812 228 L1990 233 Q1991 188 1994.5 152 Q1998 116 1992.5 109.5 Q1987 103 1922 102 L1839 104 Q1860 -2 1864.5 -80 Q1869 -158 1836.5 -205.5 Q1804 -253 1715 -280.5 Q1626 -308 1576.5 -307 Q1527 -306 1421 -285 Q1315 -264 1298 -253 L1135 -172 Q1136 -132 1139 -126 L1170 -57 Q1300 -117 1387.5 -144.5 Q1475 -172 1582 -176 Q1689 -180 1721.5 -134 Q1754 -88 1744 -60 L1708 104 L1284 107 Q1154 113 1081.5 102.5 Q1009 92 996.5 104.5 Q984 117 977 165.5 Q970 214 988 226 Q1006 238 1048 238 L1672 223 Z" /><glyph glyph-name="uni548C" unicode="&#x548c;" d="M243 1125 Q188 1126 157 1122 Q126 1118 119 1125.5 Q112 1133 114 1149 L120 1262 L580 1259 L571 1364 L462 1367 L241 1365 L114 1362 Q110 1369 109 1393 Q106 1451 109 1465 L116 1498 L1103 1498 L1098 1367 L710 1368 L714 1256 L1073 1259 L1076 1124 L877 1122 L725 1123 L762 38 Q836 -10 877.5 -38.5 Q919 -67 962.5 -100 Q1006 -133 1010.5 -143 Q1015 -153 993 -187 L949 -254 L762 -128 Q767 -185 752.5 -260 Q738 -335 583 -340 Q523 -342 447 -327 Q371 -312 365 -285 L381 -223 L396 -159 Q552 -207 581.5 -183 Q611 -159 615 -101.5 Q619 -44 616 169 L598 998 L586 1126 L366 1133 Q331 366 318 137 L292 -306 Q225 -319 208 -316 L161 -311 Q172 -180 177 -113 L202 347 L243 1125 ZM1928 621 L1936 157 L1935 -221 Q1934 -303 1930.5 -306.5 Q1927 -310 1872 -313 Q1803 -318 1804 -311 L1797 -258 L1343 -252 Q1348 -284 1338 -302 Q1328 -320 1208 -306 Q1192 -150 1177.5 18 Q1163 186 1152.5 446.5 Q1142 707 1139 870 Q1133 1106 1138 1231.5 Q1143 1357 1133 1418.5 Q1123 1480 1135.5 1490 Q1148 1500 1171 1504 L1317 1493 L1621 1493 Q1783 1493 1827 1479 Q1871 1465 1906.5 1424.5 Q1942 1384 1941 1314 L1928 621 ZM1804 -134 Q1803 127 1803.5 383.5 Q1804 640 1803 799 Q1802 958 1805 1080 Q1808 1202 1804 1259 Q1799 1317 1779.5 1347.5 Q1760 1378 1594 1378 L1261 1370 Q1259 893 1268.5 667 Q1278 441 1291 306 L1328 -134 L1490 -131 Q1695 -128 1706 -128 L1804 -134 Z" /><glyph glyph-name="uni5F88" unicode="&#x5f88;" d="M662 1367 L619 1367 L625 1510 L1004 1527 L1495 1521 L1742 1503 Q1851 1495 1886 1457.5 Q1921 1420 1922 1391 Q1923 1362 1923 1360 L1905 974 L1884 697 L1868 306 Q1866 281 1857 269.5 Q1848 258 1805 248 Q1761 237 1757 242 L1720 269 L1584 269 L1700 88 L1743 29 Q1812 65 1879 85 Q1919 25 1925 5 L1936 -32 L1826 -89 L1922 -234 L1811 -309 L1416 264 L779 227 L783 130 L806 -21 Q822 -129 857.5 -160.5 Q893 -192 999 -130 L1239 3 L1302 -101 L999 -277 Q927 -314 898 -312 Q869 -310 813.5 -285.5 Q758 -261 721.5 -208 Q685 -155 661.5 -2 Q638 151 631 306.5 Q624 462 632 672 L642 892 L662 1367 ZM985 375 L1728 405 L1752 713 L768 688 L768 363 L985 375 ZM774 814 L1757 834 Q1764 931 1769 1005 Q1774 1079 1777.5 1162 Q1781 1245 1778.5 1285.5 Q1776 1326 1770 1340.5 Q1764 1355 1658 1368 L1462 1382 L1212 1390 L1003 1387 L800 1383 L776 1057 L774 814 ZM465 1545 L527 1410 L156 1179 L83 1310 L465 1545 ZM78 473 L444 683 L507 573 L370 473 L397 -316 L261 -316 L230 401 L146 347 L78 473 Z" /><glyph glyph-name="uni6000" unicode="&#x6000;" d="M143 1490 L285 1486 L259 963 L254 635 L253 203 L258 48 Q262 -85 287.5 -122 Q313 -159 329 -164 Q344 -170 397 -146 L442 -125 L442 56 L409 635 L395 1253 L397 1477 L529 1482 L536 1117 L539 652 L584 -102 Q589 -101 600 -100.5 Q611 -100 619 -122 L616 -165 L614 -200 L598 -221 L597 -296 Q592 -304 487 -315 Q465 -318 464 -309 L452 -281 Q373 -305 329 -306 Q285 -307 224 -261.5 Q163 -216 147 -108 L120 66 L120 617 L131 1192 L143 1490 ZM862 1307 L865 1359 L712 1347 L649 1339 Q634 1340 625 1347 Q616 1354 614 1366 L616 1407 L610 1459 Q618 1480 643 1482 L871 1494 L1030 1515 L1533 1510 L1780 1494 Q1910 1485 1924 1465 Q1938 1445 1902 1349 L1825 1358 L1562 1373 L1363 1380 L1457 1042 L1504 791 L1522 631 L1524 617 L1571 142 L1571 72 L1870 12 L1922 -19 Q1912 -62 1893 -129 L1571 -70 Q1552 -188 1525 -225 Q1498 -262 1457.5 -286.5 Q1417 -311 1271 -310 Q1125 -309 1023 -299 L946 -287 L856 -258 L873 -136 Q938 -148 1009 -162 L1242 -178 Q1383 -188 1405.5 -154 Q1428 -120 1434.5 -42 Q1441 36 1440 63 L1424 317 L1388 617 L1390 631 L1335 980 L1271 1224 L1212 1382 L1027 1374 L1005 1337 L894 669 L885 617 L815 -25 L800 -177 Q795 -222 788.5 -228 Q782 -234 764.5 -234.5 Q747 -235 666 -212 L679 -29 L754 617 L862 1307 Z" /><glyph glyph-name="uni4F1A" unicode="&#x4f1a;" d="M1727 1332 L1864 1153 Q1891 1116 1891.5 1110.5 Q1892 1105 1848 1064 L1808 1030 Q1757 1079 1748 1092 L1706 1148 Q1703 1094 1696 1077 L1689 1059 L1528 1067 L1020 1061 L951 1056 L599 1051 L322 1019 L272 912 Q188 937 171 953.5 Q154 970 152.5 978 Q151 986 167 1014 L358 1366 L286 1361 L282 1490 L619 1535 L1380 1524 Q1521 1521 1555.5 1504 Q1590 1487 1619 1455 L1727 1332 ZM405 1178 L1673 1196 L1546 1340 L1476 1399 L585 1400 L521 1393 L405 1178 ZM1782 138 L1827 -95 L1879 -292 L1754 -305 L1729 -227 L474 -330 Q335 -342 314 -239 L283 -91 L279 75 L151 65 L148 206 L336 207 L810 219 L1916 266 L1916 146 Q1863 136 1782 138 ZM438 -193 L827 -170 L1507 -122 L1695 -101 L1650 136 L1018 103 L1002 101 L412 78 Q407 22 406.5 -27.5 Q406 -77 420 -124 L438 -193 Z" /><glyph glyph-name="uni6D3B" unicode="&#x6d3b;" d="M239 730 L365 712 Q332 504 305.5 317.5 Q279 131 267 -14 L242 -287 L109 -279 Q128 -81 148.5 109 Q169 299 190 423 L239 730 ZM574 627 L564 788 L162 828 Q129 831 126 873 L130 901 L143 979 L534 928 Q598 919 580 879 L567 828 L698 811 L929 809 L1106 824 L1113 934 L700 929 L574 924 Q545 948 553 991 L560 1064 L941 1066 L1116 1062 L1115 1322 L941 1312 L664 1283 L648 1286 L637 1422 L935 1442 L1399 1459 L1650 1469 L1860 1479 L1862 1351 L1249 1332 L1238 1044 L1924 1029 Q1930 977 1929 966 L1924 909 L1698 914 L1238 929 L1239 850 L1453 846 L1691 835 Q1833 828 1871 777.5 Q1909 727 1908 701 L1911 602 L1882 -148 L1887 -235 Q1880 -247 1863.5 -256.5 Q1847 -266 1825 -263 L1656 -242 L1197 -240 L935 -243 L727 -253 L688 -293 Q683 -296 653 -297 L595 -300 Q580 -294 572 -276 Q562 -257 585.5 -156.5 Q609 -56 584 448 L574 627 ZM708 -112 L920 -118 L1755 -120 L1756 -59 L1766 181 L1767 680 L1741 690 L1510 719 L1266 717 Q963 691 710 676 Q706 641 705 627.5 Q704 614 704 443 L708 -112 ZM175 1504 L493 1386 Q635 1333 615 1300 L579 1201 L242 1324 L129 1369 Q141 1436 149 1451 L175 1504 Z" /><glyph glyph-name="uni6216" unicode="&#x6216;" d="M1269 1323 L484 1336 L79 1337 L79 1452 L1025 1448 L1272 1448 L1277 1573 L1417 1573 L1413 1443 L1662 1434 L1638 1546 L1763 1562 L1800 1421 L1925 1411 L1920 1295 L1725 1306 L1409 1317 L1399 683 L1408 580 L1412 456 L1448 213 Q1457 149 1484 52 L1895 337 L1958 230 Q1943 211 1929 196.5 Q1915 182 1860 145 L1533 -74 Q1552 -109 1576 -130.5 Q1600 -152 1649.5 -152.5 Q1699 -153 1794 -117 L1929 -54 L2004 -164 Q1878 -250 1812 -270.5 Q1746 -291 1655.5 -293.5 Q1565 -296 1509 -252.5 Q1453 -209 1417 -153 L1296 -235 L1260 -252 L1182 -138 L1365 -22 L1364 -21 L1328 125 Q1309 200 1290 420 L1275 594 L1265 1206 L1269 1323 ZM157 1257 L282 1257 L299 1232 Q518 1220 636 1216 Q754 1212 848.5 1201.5 Q943 1191 1020.5 1148.5 Q1098 1106 1117 1064.5 Q1136 1023 1131 824 L1125 588 L1131 102 L1004 97 L999 118 L282 102 L281 76 L162 76 L157 360 L159 570 L157 1257 ZM278 612 L282 241 L603 226 L1006 241 L1006 397 Q1006 983 999 997 Q970 1050 926 1060 L815 1093 L284 1109 L278 612 ZM1041 -195 L143 -340 L125 -215 L1031 -64 L1041 -195 Z" /><glyph glyph-name="uni6FC0" unicode="&#x6fc0;" d="M398 1163 L116 1394 L200 1494 L390 1336 L388 1397 Q495 1437 503 1408 L520 1364 L683 1403 L718 1531 L849 1507 L827 1414 Q1061 1384 1115.5 1368.5 Q1170 1353 1177 1342 L1224 1278 L1301 1452 L1343 1555 L1463 1535 L1431 1460 L1923 1425 L1923 1293 L1844 1300 Q1888 408 1856 43 L1841 -134 L1968 -183 L1908 -308 L1761 -255 Q1614 -293 1525.5 -291.5 Q1437 -290 1223 -245 L1248 -119 L1410 -154 Q1388 -23 1381.5 54.5 Q1375 132 1377.5 296.5 Q1380 461 1388 687 L1408 1324 L1377 1324 L1326 1195 L1243 1214 Q1234 986 1235.5 881.5 Q1237 777 1247.5 703.5 Q1258 630 1244 597.5 Q1230 565 1183.5 544 Q1137 523 1048 520 L877 513 L886 447 L1220 427 L1223 304 L1063 322 Q801 327 573 317 L573 263 Q761 274 858 277 Q1073 281 1120 225 Q1167 169 1171 99 L1185 -202 Q1186 -225 1166.5 -254.5 Q1147 -284 1076.5 -301 Q1006 -318 922 -299 L866 -286 Q794 -273 792.5 -260.5 Q791 -248 798 -221 Q799 -216 804 -181.5 Q809 -147 826 -140 Q835 -137 890 -160 Q945 -183 987 -182 L1056 -183 L1039 120 Q984 140 953 147 Q922 154 779.5 160.5 Q637 167 596 149 L564 136 L555 -281 L427 -287 L443 311 L386 309 L332 321 L232 -301 L102 -280 L248 630 L383 610 L352 429 L750 438 Q752 455 751.5 461.5 Q751 468 748 483.5 Q745 499 725 498 L503 500 Q454 497 442.5 503.5 Q431 510 420 631 L415 741 L102 864 L148 992 L408 887 L398 1154 L398 1163 ZM531 978 L1003 948 L1119 945 L1119 1107 Q1119 1190 1099.5 1219 Q1080 1248 992.5 1268 Q905 1288 807 1282 Q762 1279 530 1240 L531 978 ZM556 619 L708 619 Q929 633 1110 662 L1110 814 L535 861 L556 619 ZM1530 -165 Q1660 -165 1707 -129 Q1754 -93 1750 117 L1750 567 Q1749 859 1734 1078 L1719 1305 L1534 1321 Q1494 655 1493 362.5 Q1492 70 1509 -29 L1530 -165 Z" /><glyph glyph-name="uni5DF1" unicode="&#x5df1;" d="M864 1384 L295 1367 L133 1352 L128 1488 L300 1499 L974 1504 L1733 1483 Q1883 1478 1901 1424.5 Q1919 1371 1913 1307 L1907 1232 L1896 1103 L1880 505 L1886 235 L1771 218 L1755 275 L1298 288 L985 288 L344 247 L316 34 Q305 -45 322.5 -98 Q340 -151 389 -166.5 Q438 -182 530 -170 Q692 -151 945 -144.5 Q1198 -138 1849 -127 L1849 -258 L1080 -258 L689 -277 L472 -299 Q462 -300 395.5 -296 Q329 -292 256.5 -223 Q184 -154 184.5 -75 Q185 4 186 13 L212 238 L159 238 L159 369 L984 406 L1758 399 L1758 689 L1773 1149 L1774 1248 Q1776 1287 1776 1294 Q1775 1324 1760 1349.5 Q1745 1375 1651.5 1367 Q1558 1359 1425 1368 L1006 1373 L864 1384 Z" /><glyph glyph-name="uni5047" unicode="&#x5047;" d="M46 1172 Q26 1206 31 1213 L48 1243 L89 1269 L465 1511 Q498 1532 500 1533 L554 1509 Q558 1507 604 1515 Q650 1523 654 1524 Q666 1525 710 1517.5 Q754 1510 838.5 1505 Q923 1500 959.5 1461.5 Q996 1423 997 1386.5 Q998 1350 998 1348 L992 1162 L967 704 L967 644 L952 486 L944 393 Q940 389 880 379 Q820 369 817 378 L817 425 Q744 429 652 416 Q646 377 646.5 352 Q647 327 661 304 L689 308 L904 312 Q920 312 927.5 298.5 Q935 285 937.5 254.5 Q940 224 936 200.5 Q932 177 911 177 L707 171 L655 166 L655 -30 L659 -78 L876 -75 L909 -66 Q929 -130 927 -146 L921 -201 L659 -206 Q663 -238 662.5 -256 Q662 -274 652.5 -288.5 Q643 -303 604 -305 Q552 -309 536 -303 Q520 -297 514 -287 L525 -202 L523 346 L510 630 L494 1352 L496 1372 Q438 1336 374 1295 L374 921 L406 -305 Q382 -321 369 -322 L338 -322 L306 -328 Q289 -327 279.5 -314.5 Q270 -302 269 -165 L263 256 L255 644 L249 1163 L245 1220 L87 1116 L46 1172 ZM621 1132 L633 644 L636 619 Q636 613 637 611 L639 605 L641 565 Q648 547 705.5 556.5 Q763 566 828 562 L837 634 L845 833 L863 1331 L857 1366 L622 1390 L621 1132 ZM1155 712 L1076 710 Q1071 731 1071 742 L1071 789 Q1070 826 1078.5 833.5 Q1087 841 1182 842 L1316 855 L1652 848 Q1719 846 1772 842.5 Q1825 839 1861.5 809 Q1898 779 1904.5 724.5 Q1911 670 1898 562 L1883 378 Q1876 294 1856.5 163 Q1837 32 1814 -9 L1764 -110 Q1793 -129 1808 -137 L1893 -186 Q1928 -208 1930 -221 Q1932 -234 1910.5 -271.5 Q1889 -309 1883 -312 L1854 -331 Q1829 -322 1818 -316 L1741 -270 L1672 -228 Q1603 -265 1559 -279 Q1515 -293 1372 -299 L1190 -308 Q1077 -310 1068 -300 Q1059 -290 1060 -254 Q1061 -194 1065.5 -182 Q1070 -170 1076 -165 L1240 -165 Q1217 -136 1201 -108.5 Q1185 -81 1169 3 Q1153 87 1150.5 150.5 Q1148 214 1150 353 L1155 712 ZM1285 723 Q1281 570 1280 438.5 Q1279 307 1287 168 Q1293 48 1313.5 -24.5 Q1334 -97 1361 -126 L1398 -170 Q1491 -169 1565 -141.5 Q1639 -114 1675 -9.5 Q1711 95 1731 216.5 Q1751 338 1755.5 468.5 Q1760 599 1767.5 648.5 Q1775 698 1762 710 Q1752 718 1730.5 719 Q1709 720 1542 723 Q1375 726 1353 726 L1285 723 ZM1150 1380 Q1104 1369 1088 1378.5 Q1072 1388 1071 1398 Q1070 1408 1072 1428 Q1075 1502 1080.5 1506 Q1086 1510 1113 1513 L1345 1533 L1582 1544 Q1780 1553 1846.5 1487.5 Q1913 1422 1924 1396 Q1935 1370 1936.5 1310 Q1938 1250 1925 1153 Q1912 1063 1878 1020.5 Q1844 978 1762.5 960 Q1681 942 1545.5 935 Q1410 928 1364 928 L1200 928 Q1137 926 1110 942 Q1083 958 1079 1003 Q1072 1061 1095 1061 L1153 1071 Q1268 1060 1327 1061 L1459 1066 L1660 1071 Q1721 1074 1747.5 1090.5 Q1774 1107 1785 1130.5 Q1796 1154 1799 1222 L1802 1284 Q1803 1353 1777 1378 Q1762 1391 1738.5 1397 Q1715 1403 1656 1408.5 Q1597 1414 1583 1414 L1370 1408 L1165 1388 L1150 1380 Z" /><glyph glyph-name="uni95F4" unicode="&#x95f4;" d="M1873 642 L1872 116 L1876 -140 Q1863 -237 1819.5 -272.5 Q1776 -308 1718.5 -308.5 Q1661 -309 1621 -298 L1460 -258 L1385 -239 L1004 -208 L960 -206 L583 -183 L587 -220 L438 -223 L436 87 L426 640 L424 660 L440 1148 Q506 1150 547 1137.5 Q588 1125 591 1126 L830 1137 L975 1133 L1136 1143 L1349 1125 Q1434 1117 1455 1109.5 Q1476 1102 1503 1071.5 Q1530 1041 1544 1000.5 Q1558 960 1556.5 911 Q1555 862 1555 860 L1553 642 L1534 96 L1528 9 Q1526 -16 1525.5 -49 Q1525 -82 1526 -86 Q1526 -109 1534.5 -124 Q1543 -139 1596 -142 L1732 -153 L1738 801 L1738 988 Q1738 1063 1719 1131 L1692 1221 Q1684 1253 1673 1268.5 Q1662 1284 1613 1295 L1472 1324 L976 1333 L939 1332 L546 1308 L566 1453 L833 1474 L957 1476 L975 1477 L1469 1467 Q1675 1462 1745.5 1400 Q1816 1338 1828 1292 L1874 1099 L1884 809 L1877 656 L1873 642 ZM568 486 L569 428 L1401 397 L1405 643 L1407 873 Q1407 947 1398 960.5 Q1389 974 1378 981.5 Q1367 989 1306 998 L1257 1005 L1105 1011 L960 1011 L622 982 L580 975 L568 486 ZM575 223 L581 -43 L1335 -91 L1383 -89 L1394 270 L971 295 L960 298 L779 298 L575 282 L575 223 ZM174 660 L184 1128 L181 1207 Q183 1221 188.5 1226.5 Q194 1232 244 1235.5 Q294 1239 296 1239 Q308 1234 321.5 1214 Q335 1194 335.5 1164 Q336 1134 335 1116.5 Q334 1099 333 1015 L310 1 L293 -324 Q274 -334 262 -333 L216 -326 L151 -316 Q145 -298 144 -288 L155 -191 L168 353 L173 646 L174 660 ZM116 1389 Q118 1404 121.5 1414 Q125 1424 155 1459 L174 1482 Q204 1517 228 1503 L412 1386 L468 1341 L366 1232 Q357 1233 354 1235 L255 1315 L116 1389 Z" /><glyph glyph-name="uni51CF" unicode="&#x51cf;" d="M340 52 L306 -303 Q249 -303 238 -299 L175 -282 L243 270 L305 682 L351 1028 L354 1067 Q361 1077 407 1067 Q478 1050 482.5 1034 Q487 1018 486 1005 L439 681 L340 52 ZM104 1371 Q119 1417 125 1423 L172 1486 L453 1341 L543 1286 Q529 1229 522 1219 L491 1172 L441 1200 L249 1289 L104 1371 ZM1562 -95 L1427 -299 Q1410 -325 1373.5 -296.5 Q1337 -268 1326 -252.5 Q1315 -237 1315.5 -229 Q1316 -221 1344 -180 L1413 -81 L1512 57 Q1505 86 1493.5 151 Q1482 216 1485 546 L1485 761 L1498 1317 L760 1312 L755 1242 Q940 1230 965 1232 L1346 1246 L1371 1248 Q1388 1189 1386 1176 L1380 1115 Q787 1102 768 1099 L745 1095 Q732 755 730 709 L697 20 L695 -235 Q694 -243 694.5 -262 Q695 -281 691 -287 Q674 -308 563 -286 L580 200 Q601 676 604 776 L620 1313 Q587 1313 569.5 1322.5 Q552 1332 550 1341.5 Q548 1351 551 1376 Q556 1439 557.5 1441 Q559 1443 563 1446 L643 1445 L1501 1440 L1501 1562 Q1522 1570 1542.5 1575 Q1563 1580 1638 1568 L1641 1441 L1680 1441 L1675 1523 L1810 1535 L1821 1446 L1877 1446 Q1904 1349 1879 1333 L1855 1313 L1635 1306 L1627 1174 Q1623 916 1622 772.5 Q1621 629 1622 436 L1622 223 L1804 484 Q1870 458 1886 446 L1925 416 L1667 24 Q1711 -79 1753 -90 L1947 -169 Q1942 -238 1936 -252 L1915 -310 Q1796 -292 1714.5 -253 Q1633 -214 1609 -169 L1562 -95 ZM857 -293 L820 835 Q816 940 803 981 Q790 1022 798.5 1037 Q807 1052 834 1057 Q848 1059 881 1047 L949 1021 L1192 1012 Q1218 1011 1268.5 987.5 Q1319 964 1345.5 942.5 Q1372 921 1371 864 Q1370 807 1369 792 L1315 328 L1303 -215 Q1301 -278 1291 -284 Q1281 -290 1267 -289 Q1183 -287 1173 -272 L1160 -256 Q1090 -258 1036.5 -248.5 Q983 -239 980 -247 L975 -283 Q961 -324 938 -312 L857 -293 ZM953 891 L975 0 L982 -115 L1174 -121 L1232 790 Q1232 804 1232.5 826.5 Q1233 849 1220 862.5 Q1207 876 1133 881 L953 891 Z" /><glyph glyph-name="uni9759" unicode="&#x9759;" d="M1137 1150 L1191 1514 L1322 1504 L1310 1426 Q1429 1440 1504 1440 Q1572 1439 1643.5 1426 Q1715 1413 1738.5 1386 Q1762 1359 1766.5 1325.5 Q1771 1292 1764 1248 Q1759 1224 1747 1166 Q1784 1161 1816.5 1148.5 Q1849 1136 1871 1089.5 Q1893 1043 1890 977 L1864 515 L1984 521 L1984 398 L1860 398 L1853 72 L1732 68 L1732 107 L1571 105 L1564 -43 Q1560 -110 1543.5 -163.5 Q1527 -217 1490.5 -248 Q1454 -279 1378 -281 Q1308 -284 1260 -267 L1114 -223 L1147 -106 Q1280 -153 1335.5 -154 Q1391 -155 1412 -128 Q1433 -101 1439 -33 L1450 98 L1074 84 L1069 202 L1450 215 L1450 383 L1066 375 L1063 493 L1448 503 L1453 1052 L1059 1034 L1052 1148 L1137 1150 ZM1273 1155 L1597 1166 L1617 1259 Q1620 1276 1607.5 1294.5 Q1595 1313 1454 1312 Q1386 1311 1296 1294 L1273 1155 ZM1560 506 L1742 510 L1764 984 Q1767 1057 1681 1056 L1570 1054 L1560 506 ZM1739 398 L1571 391 L1575 218 L1732 222 L1739 398 ZM819 -135 L266 -117 L269 -318 L149 -318 Q145 -201 144.5 -130.5 Q144 -60 148 100 L153 317 Q156 466 158 495 L167 672 L287 672 L287 647 L712 639 Q745 638 802.5 629.5 Q860 621 887.5 601 Q915 581 929 546 Q943 511 943 481 L938 -210 Q937 -321 818 -330 Q802 -332 690 -325 L693 -208 Q739 -211 768 -212.5 Q797 -214 807 -205 Q817 -196 818 -171 L819 -135 ZM266 -4 L820 -21 L821 252 L573 259 L273 266 Q269 173 269 160 L266 -4 ZM277 380 L543 372 L821 365 L821 438 Q821 483 805 500 Q789 517 751.5 526.5 Q714 536 671 537 L284 540 L277 380 ZM666 1343 L658 1163 Q785 1155 938 1149 L932 1036 Q795 1041 661 1045 L652 829 Q818 820 968 807 L960 687 Q753 707 699.5 709.5 Q646 712 457.5 711.5 Q269 711 127 708 L127 826 L533 829 L540 1049 L116 1041 L116 1151 L540 1159 L546 1345 Q348 1343 127 1338 L127 1451 L549 1457 L551 1557 L675 1553 L674 1457 Q824 1455 984 1449 L978 1330 Q819 1338 666 1343 Z" /><glyph glyph-name="uni65E7" unicode="&#x65e7;" d="M167 641 L183 1437 Q184 1502 192 1504 Q200 1506 210 1506.5 Q220 1507 253.5 1511 Q287 1515 329 1504 L312 1216 L303 639 L304 617 L313 142 L331 -217 L341 -265 Q325 -276 305.5 -284.5 Q286 -293 202 -281 L188 -54 L167 619 L167 641 ZM521 638 L517 1003 L530 1349 L527 1508 Q541 1537 562 1541 Q566 1541 598 1536 L644 1529 L684 1506 L807 1510 L987 1515 L1009 1513 L1381 1533 L1606 1504 Q1778 1481 1829 1420.5 Q1880 1360 1881.5 1248 Q1883 1136 1883 1128 L1868 631 L1868 617 L1858 228 L1837 -43 L1837 -285 L1748 -303 L1243 -296 L983 -281 L684 -276 L598 -294 Q583 -297 559 -297.5 Q535 -298 528 -284 L531 -238 L525 617 L521 638 ZM657 1195 L654 487 L987 473 L1001 467 L1733 454 L1736 617 L1736 630 L1746 1078 Q1747 1132 1746.5 1169 Q1746 1206 1745 1217 L1735 1257 L1729 1318 Q1723 1339 1711 1342 L1534 1384 L1387 1402 L1004 1386 L987 1386 L673 1369 L657 1195 ZM661 271 L661 -140 L983 -156 L998 -152 L1447 -174 L1699 -171 L1729 300 L1677 327 L998 350 L987 348 L729 357 L657 350 L661 271 Z" /><glyph glyph-name="uni6CAE" unicode="&#x6cae;" d="M607 -171 L616 665 L616 738 L611 1467 L608 1514 Q618 1537 686 1541 Q721 1543 723 1537 L738 1507 L1062 1510 L1400 1498 L1630 1482 Q1664 1479 1764 1435.5 Q1864 1392 1885.5 1368.5 Q1907 1345 1911 1294.5 Q1915 1244 1913 1184 L1889 679 L1865 138 L1858 -101 L1855 -154 L1981 -154 L1983 -275 Q1903 -281 1864 -281 L1684 -280 L1120 -285 L648 -295 Q489 -299 489 -297 L483 -236 L478 -208 Q478 -180 506 -175 L573 -177 L607 -171 ZM730 -123 L737 -172 L1073 -165 L1507 -165 L1736 -164 L1743 162 Q1743 200 1741.5 205.5 Q1740 211 1543 216 L1077 226 L734 232 L730 -123 ZM736 355 L1077 348 L1418 336 L1753 331 L1763 460 L1769 665 L1775 919 Q1761 925 1744 931 Q1727 937 1596 940 L1294 945 L1187 947 Q981 949 739 969 L736 665 L736 355 ZM736 1093 L1123 1074 L1782 1051 Q1784 1136 1788 1182.5 Q1792 1229 1792 1247 Q1790 1275 1783 1285 Q1776 1295 1716 1318 L1638 1352 L1434 1383 Q1134 1382 860 1385 L736 1374 L736 1093 ZM516 642 L215 -275 L91 -243 L396 681 L516 642 ZM66 1335 L114 1457 L563 1320 L526 1195 L66 1335 ZM83 884 L108 1008 L549 922 L531 805 L83 884 Z" /><glyph glyph-name="uni89C9" unicode="&#x89c9;" d="M354 693 L354 995 L384 1001 L641 999 L829 1003 L1490 1004 Q1578 1004 1690.5 971 Q1803 938 1832 884 Q1861 830 1865 775 Q1869 720 1867 682 L1855 426 L1847 119 L1844 -67 Q1774 -67 1688 -83 L1707 383 L1717 654 Q1716 737 1700 774.5 Q1684 812 1660.5 828 Q1637 844 1582 852 L1410 875 L502 864 Q497 852 495 843.5 Q493 835 494 810 L498 689 L502 588 L502 129 L507 -36 L351 -52 L358 115 L358 682 L354 693 ZM318 1053 L275 1033 L293 864 L300 813 Q293 796 267.5 789.5 Q242 783 162 781 L148 826 L100 1214 L233 1224 L254 1184 L374 1190 L374 1207 L321 1531 L472 1541 L522 1222 L714 1237 L812 1242 L804 1526 Q883 1536 962 1531 L970 1257 L1570 1252 L1577 1263 L1608 1464 Q1621 1550 1635 1554.5 Q1649 1559 1776 1547 L1730 1230 Q1896 1201 1925 1154 Q1954 1107 1950 1062 L1944 963 L1798 969 Q1803 1035 1793 1051 L1772 1086 L1646 1112 L1327 1126 L942 1123 Q607 1107 509 1088 L318 1053 ZM762 -58 L736 -272 L729 -326 Q686 -337 681 -336 L584 -331 L647 105 Q665 198 668 220 L681 310 L824 292 L801 139 L762 -58 ZM1378 176 Q1373 146 1373 132 L1373 123 L1368 33 Q1370 -5 1386 -67.5 Q1402 -130 1435.5 -159 Q1469 -188 1551.5 -185.5 Q1634 -183 1665 -177 L1873 -141 L1931 -261 Q1841 -289 1782 -301 Q1723 -313 1566 -318 Q1483 -321 1408.5 -306.5 Q1334 -292 1288.5 -226 Q1243 -160 1236 -124 L1226 -78 L1222 133 L1228 194 L1378 176 Z" /><glyph glyph-name="uni51B3" unicode="&#x51b3;" d="M634 1254 L150 1399 L188 1524 L675 1378 L634 1254 ZM498 1081 L615 1045 L269 -305 L147 -274 L498 1081 ZM1760 -114 L1839 -296 L1718 -351 L1615 -117 L938 -120 L915 -340 L785 -333 L803 -120 L612 -124 L612 7 L816 7 L926 1338 L721 1330 L717 1462 L932 1469 L937 1575 L1077 1572 L1068 1469 L1555 1458 Q1698 1454 1745.5 1419.5 Q1793 1385 1805.5 1344.5 Q1818 1304 1818 1248 L1818 17 L1931 14 L1924 -117 L1760 -114 ZM948 7 L1685 14 L1685 1229 Q1685 1280 1666 1308 Q1647 1336 1507 1338 L1055 1344 L948 7 Z" /><glyph glyph-name="uni53EF" unicode="&#x53ef;" d="M1853 1350 L1862 1007 L1882 643 L1895 -4 L1884 -175 Q1879 -240 1831 -281 Q1783 -322 1654 -318 L1392 -313 L1403 -171 Q1601 -195 1671.5 -183 Q1742 -171 1743 -151 L1753 -93 Q1760 160 1759 288 L1722 1075 Q1719 1168 1719 1171 L1706 1355 Q1033 1373 671.5 1367.5 Q310 1362 209 1366 L58 1371 L58 1497 Q389 1495 749 1507 L1835 1484 L1983 1482 L1983 1346 L1853 1350 ZM1433 -114 L440 -95 L263 -107 Q207 -110 197.5 -102.5 Q188 -95 186 -55 L116 1271 Q115 1273 116 1286 Q117 1299 131 1314 L257 1309 L1272 1300 Q1432 1298 1497.5 1238.5 Q1563 1179 1567 1045 L1588 335 Q1599 -69 1576 -93 Q1553 -117 1534 -114 L1433 -114 ZM315 50 L1456 31 L1436 910 Q1432 1054 1397 1112 Q1362 1170 1235 1172 L252 1180 L315 50 Z" /><glyph glyph-name="uni54ED" unicode="&#x54ed;" d="M1899 489 L1767 489 L1767 520 L1695 523 L1558 532 L1125 541 L1124 484 L983 484 L962 1450 L962 1510 L1077 1515 L1077 1489 L1341 1496 L1637 1478 Q1773 1469 1837.5 1406.5 Q1902 1344 1904 1316 L1914 1143 Q1915 1122 1909 1002 L1909 741 L1901 548 L1899 489 ZM1087 1259 L1097 931 L1106 679 L1772 647 L1777 1154 Q1778 1271 1757.5 1293.5 Q1737 1316 1639 1339 Q1541 1362 1485 1363 L1275 1370 L1090 1362 L1087 1259 ZM1705 468 L1739 324 Q1833 318 1914 311 Q1913 269 1913 264 L1910 176 L1877 177 L791 240 Q789 160 789 144 L784 49 L1893 -211 L1877 -342 L773 -80 Q756 -143 714 -213.5 Q672 -284 499.5 -292.5 Q327 -301 203 -279 L125 -263 Q135 -227 136 -222 L155 -121 Q224 -143 250.5 -147 Q277 -151 386 -153 Q523 -157 567 -130.5 Q611 -104 635.5 -42.5 Q660 19 658 138 L656 244 L325 259 L156 264 L156 390 L660 369 L658 500 L359 520 Q298 524 271 520 L212 511 L159 520 Q153 561 154 568 L156 644 L153 685 L131 1446 L130 1541 Q182 1551 255 1546 L260 1515 L584 1514 Q776 1513 845.5 1449 Q915 1385 915.5 1350.5 Q916 1316 916 1313 Q915 1270 900 1146 Q885 1022 883 934 L883 771 Q882 636 887.5 586.5 Q893 537 883 520 Q856 477 784 505 L789 363 L1608 328 Q1590 395 1573 463 L1705 468 ZM263 1246 L271 636 L480 631 L750 609 L763 903 L778 1175 Q783 1267 774.5 1302.5 Q766 1338 724 1366.5 Q682 1395 538 1395 L263 1395 L263 1246 Z" /><glyph glyph-name="uni82E6" unicode="&#x82e6;" d="M1208 1149 L1868 1142 Q1943 1141 1918 1085 L1903 1023 L598 1011 L584 910 L685 904 L1038 920 L1223 912 L1713 870 Q1739 867 1805 832 Q1871 797 1872 791 L1905 672 L1887 -279 L1850 -287 L1534 -287 L1194 -255 L1038 -252 L511 -237 Q404 -234 398 -235 L293 -248 L289 -326 L163 -342 L160 140 L180 655 L170 822 L165 905 Q178 923 227 922 Q272 920 283.5 907.5 Q295 895 294 876 L293 850 Q376 876 472 897 Q469 925 475 964.5 Q481 1004 474 1012.5 Q467 1021 411.5 1020.5 Q356 1020 343 1020 L192 1009 Q181 1049 177 1066.5 Q173 1084 175 1109 Q177 1134 204 1134 L497 1134 L514 1263 L644 1248 L614 1127 L1024 1149 L1208 1149 ZM289 -112 L1038 -134 L1549 -170 L1765 -165 L1780 671 Q1773 711 1762.5 722.5 Q1752 734 1703 749.5 Q1654 765 1637 766 L814 800 L592 791 Q567 790 474 770 L294 730 L286 -38 L289 -112 ZM357 1326 L346 1201 L221 1201 L237 1311 L102 1300 Q87 1364 90 1382 L98 1429 L188 1428 Q221 1427 228 1440 L231 1456 L247 1546 L362 1541 L354 1438 L542 1438 L918 1432 L1494 1418 L1605 1417 L1720 1412 L1718 1540 L1838 1530 L1836 1407 L1916 1401 Q1929 1400 1934.5 1393.5 Q1940 1387 1945 1354.5 Q1950 1322 1947 1306.5 Q1944 1291 1931.5 1286 Q1919 1281 1881 1284 L1835 1287 L1832 1216 Q1766 1220 1718 1222 L1718 1298 L1538 1303 L1002 1323 L357 1326 Z" /><glyph glyph-name="uni5FEB" unicode="&#x5feb;" d="M984 -23 L971 -298 L838 -289 L850 -23 L694 -15 L694 114 L860 113 L929 1282 L715 1271 L715 1402 L940 1422 L955 1543 L1086 1538 L1078 1428 Q1201 1427 1312.5 1428 Q1424 1429 1468 1428 Q1776 1420 1818.5 1377.5 Q1861 1335 1869 1273.5 Q1877 1212 1856 1078 Q1839 977 1820 691 Q1801 405 1803 345 L1806 96 L1971 89 L1960 -31 L1772 -25 L1834 -266 L1693 -313 L1616 -28 L984 -23 ZM989 116 L1011 116 L1672 102 Q1685 334 1688.5 490.5 Q1692 647 1693 664 L1719 978 L1730 1135 Q1741 1254 1716.5 1275 Q1692 1296 1610 1297 L1390 1302 L1061 1294 L989 116 ZM160 1108 L152 1331 Q222 1344 280 1337 L289 998 L288 685 L281 59 Q280 1 284 -20 L291 -62 Q293 -92 282 -105 Q273 -116 243 -124.5 Q213 -133 199 -132 Q157 -131 157 -99 L153 148 L160 1108 ZM452 1507 L456 1526 Q517 1539 533 1537 L583 1531 L577 1324 L570 735 Q625 722 686.5 711 Q748 700 753 686 Q753 683 752.5 676.5 Q752 670 753 660 Q752 560 684 570 Q655 573 563 596 L546 142 L544 -78 L553 -274 Q517 -307 428 -290 L410 8 Q428 598 431 707 L452 1507 Z" /><glyph glyph-name="uni56F0" unicode="&#x56f0;" d="M1037 -276 L716 -258 L268 -269 Q262 -270 226 -282 Q190 -294 112 -280 L119 -134 L140 1519 Q246 1533 258 1514 L269 1499 Q677 1507 881 1504 L1127 1499 L1488 1499 Q1743 1489 1793.5 1470.5 Q1844 1452 1877.5 1412 Q1911 1372 1921 1318 L1917 1151 L1926 -134 L1933 -281 L1856 -287 L1590 -276 L1055 -280 L1037 -276 ZM244 -136 Q999 -169 1138 -164 L1804 -151 L1794 1345 Q1621 1362 1603 1363 L1122 1382 L1136 1230 L1723 1222 Q1743 1169 1740 1159 L1722 1089 L1140 1106 L1136 1076 L1181 205 L1740 66 Q1744 13 1740 3 L1720 -49 L1172 73 Q1161 -14 1145 -49 Q1129 -84 1082 -131.5 Q1035 -179 819 -122 Q735 -101 682 -75 L604 -38 Q575 -27 572 -19 Q569 -11 576 12 Q592 73 598.5 83.5 Q605 94 614 97 Q623 100 650 81 Q694 49 816.5 5 Q939 -39 976.5 -29.5 Q1014 -20 1032 7.5 Q1050 35 1040 115 L1028 609 L1012 829 L1003 1108 L665 1100 Q553 457 525 253 L478 -75 Q419 -82 354 -82 Q395 291 405 343 L532 1077 L536 1108 L348 1103 L297 1099 Q286 1102 283.5 1107 Q281 1112 284 1129 L285 1173 L298 1231 L548 1236 L1002 1231 L992 1386 Q695 1390 547 1384 L368 1374 L253 1368 L244 -136 Z" /><glyph glyph-name="uni6765" unicode="&#x6765;" d="M1121 250 L1772 249 L1914 244 Q1923 222 1926 209 Q1929 196 1923 163 Q1917 130 1912.5 123.5 Q1908 117 1792 118 L1130 121 L1133 81 L1361 7 L1972 -163 Q1974 -185 1974 -186 L1933 -293 L1177 -72 L1140 -64 Q1141 -108 1142 -129 L1147 -230 Q1147 -279 1131 -295 Q1115 -311 1012 -301 L1004 121 L494 124 L425 -311 Q423 -322 408.5 -324 Q394 -326 380.5 -323.5 Q367 -321 326.5 -317.5 Q286 -314 282.5 -303.5 Q279 -293 288 -265 L298 -206 L357 124 L327 124 L284 122 L136 120 Q129 139 122 166 Q115 193 122 209 L133 239 Q435 249 994 250 L987 327 L970 670 L967 687 L980 1294 L506 1292 L365 1295 L176 1287 Q159 1286 141 1346 Q123 1406 145 1414.5 Q167 1423 203 1423 L984 1416 L994 1507 L999 1552 L1130 1536 Q1130 1505 1130 1502 L1122 1414 L1815 1415 Q1859 1415 1875.5 1407 Q1892 1399 1881 1365 L1866 1277 L1673 1283 L1534 1286 L1105 1288 Q1094 881 1098.5 692.5 Q1103 504 1121 250 ZM1771 1156 L1647 554 L1611 431 L1578 292 Q1518 290 1510 300 L1463 339 L1621 1116 L1635 1178 Q1695 1189 1707 1183 L1771 1156 ZM395 1218 Q533 653 563 412 L576 309 Q532 299 525 300 L453 303 L370 670 L372 698 L262 1176 Q311 1206 323 1207 L395 1218 Z" /><glyph glyph-name="uni52B3" unicode="&#x52b3;" d="M100 712 L136 729 L113 1069 Q109 1114 110 1121 L110 1161 L238 1158 L234 1111 L260 1114 L238 1323 L110 1320 L110 1452 L228 1447 L224 1560 L353 1550 L359 1452 L612 1438 L978 1460 L1532 1463 L1625 1459 L1618 1543 L1743 1540 L1751 1450 Q1822 1439 1919 1440 Q1921 1390 1919 1382 L1906 1319 Q1837 1316 1758 1323 L1760 1236 L1616 1230 L1624 1329 L1404 1345 L1001 1346 L932 1339 L833 1329 L448 1319 L363 1327 L386 1117 L606 1142 L1001 1159 L1743 1131 Q1897 1125 1914 1062 Q1931 999 1942.5 922 Q1954 845 1953 838 L1949 805 L1826 787 Q1815 848 1814 895 Q1813 942 1796 969.5 Q1779 997 1715 1001 L984 1039 L816 1044 L440 1004 L248 981 L262 747 L312 753 L311 854 L434 861 L431 771 L766 804 L984 813 L1440 804 L1630 760 Q1701 743 1729 730 L1787 697 L1824 680 Q1862 621 1880.5 577.5 Q1899 534 1925.5 253 Q1952 -28 1944 -132 Q1936 -236 1899 -271 Q1862 -306 1811 -305.5 Q1760 -305 1729 -296 L1525 -239 L1548 -113 L1697 -152 Q1775 -173 1791.5 -167 Q1808 -161 1808 -131 L1808 94 L1769 528 L1740 576 L1577 637 L1348 679 L1104 687 L1031 688 L407 638 L313 -169 L307 -289 Q233 -301 205 -287.5 Q177 -274 174 -257.5 Q171 -241 179 -180 L213 103 L282 614 Q253 614 240 614 L200 609 L117 598 L100 712 Z" /><glyph glyph-name="uni4E86" unicode="&#x4e86;" d="M1044 893 L1030 895 Q979 891 968 901 Q957 911 952 959.5 Q947 1008 956.5 1018.5 Q966 1029 998 1028 L1107 1040 Q1248 1065 1276 1075 L1438 1124 L1625 1199 Q1627 1200 1682.5 1239.5 Q1738 1279 1740 1288 L1748 1314 L1669 1337 L1293 1376 L827 1399 L322 1384 L161 1372 Q146 1429 148 1442 L156 1503 L601 1520 L1026 1521 Q1127 1506 1199 1513 L1265 1504 L1540 1484 Q1656 1475 1768 1445.5 Q1880 1416 1882 1337.5 Q1884 1259 1878 1254 L1752 1137 L1677 1086 L1492 1006 L1184 922 Q1245 753 1269 668 Q1293 583 1312 486 Q1331 389 1337 316 Q1343 243 1343.5 118.5 Q1344 -6 1344 -33 Q1342 -103 1326 -168.5 Q1310 -234 1263.5 -268.5 Q1217 -303 1148.5 -321 Q1080 -339 1003 -323 L826 -271 Q678 -248 660.5 -222.5 Q643 -197 648 -188 L673 -107 L698 -106 L920 -164 Q1124 -214 1170.5 -164 Q1217 -114 1217.5 -52 Q1218 10 1217.5 105 Q1217 200 1209.5 294 Q1202 388 1163.5 552.5 Q1125 717 1085 803 L1044 893 Z" /><glyph glyph-name="uni6EE1" unicode="&#x6ee1;" d="M562 1409 L518 1321 L163 1450 L206 1569 L566 1435 L562 1409 ZM93 963 L125 1087 L564 987 L537 864 L93 963 ZM436 672 L323 -33 L309 -315 Q219 -322 194.5 -303.5 Q170 -285 165 -272 L181 -211 L218 154 L303 672 L305 690 Q306 712 312.5 718.5 Q319 725 364 718.5 Q409 712 474 683 L436 672 ZM1524 1055 L1522 1031 Q1520 973 1519 954 L1517 932 Q1726 915 1781.5 900 Q1837 885 1863 854 Q1889 823 1892 756 L1892 672 L1924 -294 L1797 -291 L1776 20 L1772 120 L1530 166 L1551 -165 L1416 -184 L1407 -14 L1370 -85 L1253 -48 Q1201 -30 1128 3 L1140 -156 L996 -163 L982 12 L936 806 L792 801 L797 751 L803 575 L823 -298 L701 -305 L692 115 L645 984 L771 992 L780 915 L930 921 L929 1024 L925 1044 Q857 1043 807.5 1044 Q758 1045 707 1042.5 Q656 1040 640.5 1058 Q625 1076 630.5 1115 Q636 1154 641 1160.5 Q646 1167 709 1173 L837 1177 L1290 1172 L1619 1190 L1816 1194 L1832 1061 L1524 1055 ZM1375 1051 L1076 1044 L1072 930 Q1346 935 1378 936 L1373 1031 L1375 1051 ZM1767 254 L1752 695 L1752 711 Q1751 763 1734 775.5 Q1717 788 1600 801 L1514 810 Q1512 768 1513 767 L1520 309 L1767 254 ZM1381 815 Q1219 815 1072 808 Q1079 489 1094 333 L1110 154 Q1258 90 1407 42 L1396 310 L1399 323 L1381 815 ZM793 1315 Q755 1312 676 1311.5 Q597 1311 588.5 1318 Q580 1325 579.5 1349.5 Q579 1374 580 1404 Q581 1434 588 1440 Q593 1445 616.5 1441 Q640 1437 702 1440 L757 1440 L810 1441 L823 1545 L976 1540 L968 1457 L1538 1454 L1538 1533 Q1616 1550 1641 1545 L1681 1537 L1689 1457 L1849 1451 Q1866 1450 1877.5 1444.5 Q1889 1439 1907 1382.5 Q1925 1326 1900 1331 L1742 1319 L1706 1319 Q1704 1276 1705 1249.5 Q1706 1223 1701 1216 Q1691 1202 1645 1206.5 Q1599 1211 1579 1210 Q1559 1209 1552 1213 Q1545 1217 1544 1248 Q1542 1271 1544.5 1295 Q1547 1319 1541 1325 Q1534 1330 1505.5 1327.5 Q1477 1325 1418 1326.5 Q1359 1328 1268 1327 L946 1321 Q943 1293 940.5 1273.5 Q938 1254 937 1232.5 Q936 1211 932 1207 Q929 1204 861 1201 Q793 1198 786 1207.5 Q779 1217 781 1237 L785 1264 L793 1315 Z" /><glyph glyph-name="uni4E48" unicode="&#x4e48;" d="M678 1369 L705 1543 L820 1526 Q791 1363 778 1283 L678 694 Q620 354 601 219 Q582 84 590.5 -5 Q599 -94 664 -141 Q729 -188 1378 -67 L1732 -13 L1702 281 L1660 598 Q1618 942 1602 1056 L1580 1212 L1726 1230 Q1760 931 1770 862 L1807 584 L1890 -63 L1916 -282 L1778 -305 L1749 -131 L1536 -168 Q1198 -224 1031 -250 Q864 -276 778 -276 Q636 -277 577 -236 Q518 -195 492.5 -133.5 Q467 -72 464 0 Q461 59 485 223 L553 678 L678 1369 ZM299 608 L341 925 L406 1384 L425 1532 L558 1517 L329 16 L286 -284 L161 -252 L194 -54 L299 608 Z" /><glyph glyph-name="uni79D8" unicode="&#x79d8;" d="M1488 477 L1399 1491 L1520 1502 L1640 236 L1512 211 L1504 299 L1191 -99 Q1213 -125 1233.5 -139 Q1254 -153 1305 -153.5 Q1356 -154 1422 -112 L1498 -57 L1527 -38 L1589 -138 L1428 -241 Q1366 -281 1302 -280.5 Q1238 -280 1200.5 -263 Q1163 -246 1118 -192 L1034 -298 L951 -212 L1057 -75 Q1043 -25 1032 27.5 Q1021 80 1018 268 Q1015 456 1016.5 761 Q1018 1066 1029 1195 L1050 1493 L1165 1483 Q1150 1295 1141 1160 Q1132 1025 1129.5 902.5 Q1127 780 1131 631 L1139 264 Q1140 128 1144 94 L1149 41 L1488 477 ZM275 645 L218 -274 L102 -267 L158 639 L108 636 L103 745 Q241 756 324.5 754.5 Q408 753 416 759.5 Q424 766 423.5 787 Q423 808 419.5 858 Q416 908 416 992 L416 1383 L210 1363 L166 1358 Q155 1361 144 1376 Q133 1391 137 1413 L142 1470 L437 1498 L679 1503 Q687 1476 690.5 1462 Q694 1448 695 1424 Q696 1400 689.5 1397 Q683 1394 651 1394 L532 1394 L514 1213 L517 840 L520 760 L683 766 L689 656 L521 646 L538 217 L544 -15 L537 -105 Q539 -110 572 -136 L619 -175 Q643 -187 647.5 -192 Q652 -197 652.5 -231 Q653 -265 629.5 -286 Q606 -307 599 -307 L563 -281 L488 -224 Q399 -335 341 -310 L255 -285 L265 -185 Q299 -199 329 -200 Q359 -201 395.5 -167 Q432 -133 433.5 -85.5 Q435 -38 433 33 L427 224 L417 646 L275 645 ZM781 -252 L747 410 L743 707 L741 717 L747 1227 L748 1420 Q802 1434 817 1432 L861 1428 L854 1303 L851 717 L852 703 L849 531 L899 -237 L781 -252 ZM1772 506 L1778 706 L1777 717 L1786 1288 Q1789 1511 1812 1521.5 Q1835 1532 1909 1522 L1890 1271 L1886 500 L1917 -200 Q1917 -209 1916.5 -234.5 Q1916 -260 1911.5 -267.5 Q1907 -275 1880.5 -283.5 Q1854 -292 1839 -291 Q1795 -290 1794 -270 L1798 -246 L1783 270 L1783 368 L1772 506 Z" /><glyph glyph-name="uni7720" unicode="&#x7720;" d="M1893 654 Q1900 624 1899.5 605 Q1899 586 1869 574 Q1839 562 1810.5 561.5 Q1782 561 1776 570 L1766 585 Q1763 586 1759 587 L1748 586 L1682 582 L1657 387 L1649 303 L1905 303 Q1929 303 1931 267.5 Q1933 232 1933 230 L1918 183 L1641 188 L1665 -2 Q1679 -114 1711 -139.5 Q1743 -165 1789.5 -176.5 Q1836 -188 1855 -186 Q1868 -186 1880.5 -180.5 Q1893 -175 1898 -175 Q1928 -176 1930.5 -234 Q1933 -292 1919.5 -300.5 Q1906 -309 1875 -305 Q1725 -289 1671.5 -246 Q1618 -203 1580.5 -136 Q1543 -69 1536 43 L1524 193 L995 192 L1005 35 Q1009 -32 1034.5 -90.5 Q1060 -149 1086 -162 Q1112 -175 1168 -170 Q1207 -167 1241.5 -156 Q1276 -145 1282 -153 Q1283 -156 1286 -177 L1298 -231 Q1297 -252 1286 -264 Q1275 -276 1183.5 -286.5 Q1092 -297 1080 -294 Q1018 -281 977 -228.5 Q936 -176 913 -109.5 Q890 -43 879.5 55 Q869 153 876.5 376 Q884 599 890 663 L944 1393 Q906 1397 897.5 1407.5 Q889 1418 893.5 1455 Q898 1492 905.5 1501 Q913 1510 926.5 1515 Q940 1520 1055 1520 L1287 1515 L1679 1481 Q1828 1468 1876.5 1406 Q1925 1344 1926 1292 Q1927 1240 1926 1226 L1901 917 L1892 672 L1893 654 ZM991 317 L1531 311 L1564 574 L1303 574 L1005 563 L991 317 ZM1010 683 L1334 689 L1636 690 L1771 706 L1776 914 L1795 1161 Q1796 1183 1798.5 1239 Q1801 1295 1782.5 1324.5 Q1764 1354 1704 1361 L1537 1378 L1055 1412 L1033 1219 L1012 904 L1010 683 ZM779 -279 Q665 -328 665 -293 L658 -252 L454 -246 L340 -252 L257 -252 Q254 -285 245 -294.5 Q236 -304 194 -306.5 Q152 -309 136.5 -294.5 Q121 -280 136 -184 L136 -11 L145 470 Q147 593 147 605 L141 736 L136 1380 Q118 1380 111 1384 Q104 1388 101 1392.5 Q98 1397 95.5 1438.5 Q93 1480 97 1486 Q101 1492 122.5 1494.5 Q144 1497 220 1495 L320 1495 L523 1489 L598 1482 Q658 1476 721 1460.5 Q784 1445 801 1425.5 Q818 1406 821.5 1342 Q825 1278 822 1154 L806 637 Q802 524 795 361 Q788 198 785.5 120 Q783 42 781 -148 L779 -279 ZM256 1244 L261 1052 L358 1052 L704 1025 Q705 1170 704 1201 L696 1358 Q605 1371 544.5 1376 Q484 1381 258 1379 L256 1244 ZM256 -141 L659 -136 L666 98 L297 114 L256 108 L256 -141 ZM263 668 L264 226 L668 212 Q689 452 689 527 L689 658 L693 675 L698 909 L627 920 L475 933 L262 940 L259 853 L263 668 Z" /><glyph glyph-name="uni96BE" unicode="&#x96be;" d="M147 708 L188 1404 L141 1409 Q140 1446 141 1451 L149 1526 L423 1504 Q607 1489 652.5 1447 Q698 1405 701 1361 L711 1172 L702 724 L694 708 L675 227 Q666 0 651 -29 L612 -118 Q677 -163 732 -196 L680 -306 L538 -212 Q428 -264 376 -280 L193 -327 Q121 -349 110 -333 Q108 -332 97.5 -285 Q87 -238 89 -233 Q89 -233 135 -217 L209 -196 Q185 -149 173 -113.5 Q161 -78 149.5 40 Q138 158 135 242 L130 380 L147 708 ZM311 1395 L277 886 L269 723 L256 237 Q254 197 265.5 70 Q277 -57 292 -81 L334 -165 Q411 -147 460.5 -113.5 Q510 -80 530 5.5 Q550 91 554 242 L575 588 Q578 663 580 765 L586 1273 Q588 1349 575 1361.5 Q562 1374 481 1383 L311 1395 ZM804 729 L813 876 L827 1200 L795 1163 Q773 1191 753 1201.5 Q733 1212 722.5 1224.5 Q712 1237 730 1259 L874 1435 L984 1566 L1088 1509 L1068 1471 L1352 1441 L1554 1430 L1527 1524 L1648 1561 L1685 1429 L1921 1405 L1917 1275 L1851 1287 L1673 1305 L1679 1058 L1899 1046 L1904 913 L1680 938 L1696 712 L1700 630 L1903 634 L1897 500 L1846 505 L1703 509 L1719 253 L1721 -62 L1730 -154 L1899 -148 L1892 -285 L1275 -262 L1005 -264 L991 -268 L771 -273 L802 708 L804 729 ZM899 -132 L1001 -146 L1604 -150 L1603 358 L1587 515 L997 533 L983 536 L923 536 L899 -132 ZM1564 944 L997 950 L979 948 L942 947 L927 727 L926 674 L931 669 L942 669 L953 665 L983 665 L997 662 L1354 637 Q1486 627 1574 635 Q1575 758 1574 782 L1564 944 ZM952 1074 L1463 1057 L1558 1062 L1552 1304 L999 1357 L952 1294 L952 1074 Z" /><glyph glyph-name="uni8111" unicode="&#x8111;" d="M140 603 L156 1290 L171 1432 L145 1434 Q144 1452 143.5 1468.5 Q143 1485 146 1490 L171 1555 L412 1546 L459 1539 Q516 1530 587.5 1503 Q659 1476 693.5 1442.5 Q728 1409 725 1377 L704 1190 L700 1164 L686 913 L691 721 L705 585 L740 11 Q745 -82 743 -117 Q741 -152 717.5 -205 Q694 -258 620 -269 Q529 -284 498 -238 L427 -157 L494 -47 Q627 -197 624 -47 Q623 -22 616 -15 Q609 -8 568 -8 L268 -8 L275 -249 L152 -258 L145 -97 L145 586 L140 603 ZM268 588 L268 125 L608 99 L586 584 L556 946 L270 957 L268 588 ZM273 1059 L282 1088 L564 1064 L601 1349 L582 1376 L390 1424 L292 1424 L273 1286 L273 1059 ZM785 600 L811 1202 L810 1234 Q816 1248 908 1252 L908 1310 Q831 1303 755 1304 L751 1425 L909 1425 L925 1429 L1211 1423 L1263 1420 Q1267 1432 1268 1439 L1262 1518 Q1274 1537 1327 1538 Q1380 1539 1396 1517 L1389 1439 L1396 1419 L1681 1407 Q1843 1400 1905 1388 L1891 1262 L1673 1288 L1572 1296 L1568 881 L1581 585 L1583 468 L1592 280 Q1592 273 1590.5 232.5 Q1589 192 1582 176 L1539 67 L1707 -17 Q1701 -77 1694 -87 L1663 -141 L1465 -49 Q1450 -43 1402.5 -67 Q1355 -91 1312 -92 Q1286 -93 1218 -88 Q1150 -83 1078.5 -75 Q1007 -67 999.5 -46.5 Q992 -26 1001 17 Q1015 92 1053 69 L1035 600 L1034 702 L1076 1311 L932 1313 L923 138 Q921 -83 956.5 -133.5 Q992 -184 1054 -180 L1728 -141 L1729 154 L1715 365 L1718 859 L1705 1079 L1702 1126 L1831 1174 L1837 885 L1835 600 L1841 398 L1855 236 L1855 -21 L1878 -239 Q1880 -265 1844 -270 Q1808 -275 1765 -271.5 Q1722 -268 1706 -268 L1580 -277 L1190 -303 L1011 -322 L923 -292 Q861 -245 841.5 -212.5 Q822 -180 815 -129 L795 15 L790 326 L785 600 ZM1163 810 L1163 599 L1184 82 L1193 37 Q1356 22 1394.5 52.5 Q1433 83 1448.5 153.5 Q1464 224 1465 244.5 Q1466 265 1463 358 L1453 600 L1443 1300 L1206 1306 L1163 810 Z" /><glyph glyph-name="uni80FD" unicode="&#x80fd;" d="M1149 401 L1413 478 L1770 580 L1901 605 L1926 572 L1935 488 Q1471 370 1145 267 L1144 208 L1161 -11 Q1168 -114 1194 -141.5 Q1220 -169 1364 -177 L1606 -192 Q1935 -163 1955 -174.5 Q1975 -186 1955 -226 L1931 -294 Q1772 -314 1745 -313 L1515 -315 L1277 -304 Q1251 -303 1189.5 -278 Q1128 -253 1127 -247 L1044 -80 L1022 152 L1029 567 L1039 676 L1034 695 L1048 752 L1065 748 Q1164 762 1163 742 L1169 695 L1168 678 L1151 478 L1149 401 ZM294 1067 L407 1092 L649 1084 Q775 1079 819.5 1036.5 Q864 994 869.5 971.5 Q875 949 879.5 900 Q884 851 885 851 L887 695 L907 282 L930 -3 Q940 -139 936 -183.5 Q932 -228 902.5 -253.5 Q873 -279 817 -281 Q780 -283 706.5 -268 Q633 -253 621 -235 Q609 -217 606 -192.5 Q603 -168 611.5 -140.5 Q620 -113 634 -108.5 Q648 -104 685 -118 Q687 -119 733.5 -133.5 Q780 -148 790 -140 Q800 -132 801 -96 Q802 -53 801 -33 L797 48 L373 40 L277 29 Q292 -103 291.5 -149 Q291 -195 295.5 -212 Q300 -229 301.5 -253 Q303 -277 246 -276.5 Q189 -276 169 -264 L144 546 L158 1056 Q159 1107 253 1110 Q284 1110 285 1104 L294 1067 ZM269 525 L264 177 L267 157 L524 167 L784 164 L754 604 L580 619 L265 619 L269 525 ZM270 752 L748 731 L764 739 L749 918 Q743 978 483 968 L382 965 L282 934 L270 752 ZM1036 1359 Q1040 1410 1037.5 1460 Q1035 1510 1046.5 1519 Q1058 1528 1107 1527 Q1153 1525 1160 1521 L1184 1506 L1167 1403 L1280 1410 L1853 1475 Q1930 1483 1947.5 1472 Q1965 1461 1960 1415 L1957 1364 L1880 1351 L1289 1291 L1156 1274 Q1155 1241 1150 1227 L1142 1208 L1140 1130 L1135 987 Q1134 959 1151 939 Q1168 919 1272 918 L1858 908 L1912 915 Q1930 911 1940.5 892 Q1951 873 1949 864 L1936 780 L1332 789 Q1161 791 1136 794.5 Q1111 798 1077 817 Q1043 836 1025 899.5 Q1007 963 1010 999 L1036 1359 ZM329 1521 L295 1357 Q283 1301 283.5 1286.5 Q284 1272 289 1261 L318 1254 L497 1268 L540 1279 L754 1315 L780 1320 Q760 1380 755 1408.5 Q750 1437 736 1454 Q722 1471 723 1475 Q728 1499 793 1499 Q845 1498 853.5 1495 Q862 1492 867 1478 L935 1254 L976 1150 Q911 1112 873.5 1116 Q836 1120 832 1133 L835 1172 Q828 1211 741 1195 L593 1167 L446 1131 Q423 1125 354.5 1122.5 Q286 1120 279 1121 Q160 1123 159 1221 L158 1296 L190 1459 Q199 1506 210 1521 Q221 1536 329 1521 Z" /><glyph glyph-name="uni6012" unicode="&#x6012;" d="M1113 672 Q1101 695 1085.5 735 Q1070 775 1060 915 Q1050 1055 1048.5 1176 Q1047 1297 1047 1303 L1040 1373 L971 1378 L977 1504 Q1251 1515 1322 1515 Q1660 1511 1749 1481 Q1838 1451 1869.5 1371 Q1901 1291 1893 1122 L1892 892 Q1889 779 1867 740 L1840 688 L1950 609 L1877 504 L1751 583 Q1690 547 1650 533 Q1610 519 1493.5 513.5 Q1377 508 1286 514.5 Q1195 521 966 562 L983 693 Q1063 679 1113 672 ZM1244 656 Q1330 647 1401 646 Q1656 641 1706 704.5 Q1756 768 1762 897 L1768 1027 Q1771 1106 1767.5 1201.5 Q1764 1297 1739 1327 Q1714 1357 1664.5 1378 Q1615 1399 1359 1394 Q1256 1391 1165 1383 Q1168 1292 1171 1207.5 Q1174 1123 1181.5 971 Q1189 819 1207 771 L1244 656 ZM814 562 L820 468 L684 457 L681 524 Q627 505 593 497 Q559 489 495 484 Q395 475 304.5 507 Q214 539 195 649.5 Q176 760 176 928 Q175 1171 176 1174 L186 1305 L93 1311 L103 1441 L187 1446 L203 1546 L333 1546 L331 1446 L669 1441 L669 1535 L799 1535 L799 1446 L930 1440 L930 1305 L799 1305 L809 698 L878 714 L903 583 L814 562 ZM680 663 L669 1305 L533 1312 L325 1306 Q311 1150 303 1022 Q295 894 304.5 777.5 Q314 661 343 639.5 Q372 618 430.5 618.5 Q489 619 680 663 ZM1114 467 L1301 55 L1175 -1 L1008 426 L1114 467 ZM1536 -128 Q1281 -225 1100 -278.5 Q919 -332 785 -328 Q690 -326 631 -287 Q572 -248 542.5 -162 Q513 -76 497 89 Q481 254 480 295 L475 421 L600 431 Q603 368 606 318 Q609 268 619.5 143.5 Q630 19 647.5 -67 Q665 -153 704 -174.5 Q743 -196 843.5 -195 Q944 -194 1087.5 -148.5 Q1231 -103 1489 -2 L1536 -128 ZM170 -316 L186 457 L307 447 L296 -327 L170 -316 ZM1741 471 L1914 -258 L1791 -283 L1621 447 L1741 471 Z" /><glyph glyph-name="uni5076" unicode="&#x5076;" d="M286 1153 L279 1235 Q231 1215 197 1193.5 Q163 1172 162 1176 L81 1287 L372 1422 L573 1529 L626 1461 Q915 1473 1157.5 1486 Q1400 1499 1548 1484 Q1672 1471 1733 1442 Q1794 1413 1819.5 1382.5 Q1845 1352 1847 1303.5 Q1849 1255 1849 1248 L1825 918 L1829 614 L1831 596 Q1831 547 1820.5 543.5 Q1810 540 1757.5 538.5 Q1705 537 1704 551 L1695 585 L1250 585 L1248 493 L1431 503 L1617 509 Q1758 513 1805 448 Q1852 383 1855 283 L1860 74 L1884 -140 L1902 -262 Q1896 -277 1889 -280 Q1884 -283 1868 -281 L1801 -284 L1768 -275 L1728 93 Q1718 180 1718.5 246.5 Q1719 313 1698 350 Q1677 387 1636 387 L1471 385 L1245 379 L1254 3 L1260 -52 L1342 -52 L1529 -38 L1533 -22 L1493 201 Q1563 230 1587 227 L1623 224 L1710 -285 Q1616 -344 1597.5 -325 Q1579 -306 1568 -262 L1548 -170 L1013 -217 L828 -233 L821 -246 L809 -99 L1122 -64 L1115 356 L1010 347 L797 328 Q719 321 710 292 L712 241 L729 -295 L602 -303 L579 278 Q574 384 592 408.5 Q610 433 683 445 L788 456 L866 465 L1114 484 L1119 589 L1029 587 L819 585 L735 574 Q723 527 704.5 515 Q686 503 608 534 L603 610 L593 789 L548 1340 L545 1357 L411 1299 L401 305 L410 -281 Q404 -292 399.5 -295.5 Q395 -299 371 -298 L309 -302 L277 -290 L273 433 L286 1153 ZM714 1004 L1133 1001 L1134 1230 L1129 1363 L1007 1352 L779 1345 L683 1335 L687 1289 L714 1004 ZM727 710 Q980 715 1125 711 Q1121 746 1122 749 L1122 880 L1023 880 L831 877 L715 885 Q720 831 721 824 L727 710 ZM1262 703 L1385 703 L1698 711 L1698 870 L1434 875 L1377 876 L1310 879 Q1272 880 1264 871 Q1256 862 1260 815 L1260 764 L1262 703 ZM1267 1008 L1703 997 L1706 1289 L1698 1317 Q1695 1327 1654 1328 L1578 1347 Q1570 1348 1500 1351 L1400 1361 L1264 1356 L1267 1008 Z" /><glyph glyph-name="uni75B2" unicode="&#x75b2;" d="M999 1440 L1029 1440 Q1027 1476 1030 1512 Q1033 1548 1043 1552.5 Q1053 1557 1103.5 1549 Q1154 1541 1165.5 1532.5 Q1177 1524 1175 1494 L1174 1443 L1785 1439 L1833 1441 Q1872 1439 1883.5 1425 Q1895 1411 1895 1349 L1895 1334 Q1894 1314 1889 1310 L1877 1297 L1269 1304 L1269 1206 L1515 1207 Q1700 1207 1772.5 1164.5 Q1845 1122 1871.5 1091.5 Q1898 1061 1911.5 934 Q1925 807 1895 797 L1850 794 L1814 788 Q1850 748 1890 708 L1890 421 L1882 87 Q1878 -45 1877 -49 L1850 -127 Q1884 -157 1917 -187.5 Q1950 -218 1954 -249.5 Q1958 -281 1926.5 -313.5 Q1895 -346 1881 -347 L1820 -289 L1767 -236 L1645 -288 L1493 -308 Q1263 -314 1217 -311 L953 -299 L646 -289 L652 -158 L781 -163 Q763 -115 744.5 -55.5 Q726 4 726 87 L724 557 L732 651 L671 646 L657 782 L997 820 L1134 832 L1123 1068 L997 1062 L619 1032 L567 1024 L550 699 L559 220 L590 -240 L594 -292 Q584 -315 559 -316 Q557 -317 543 -315 L476 -311 L466 -305 L445 -77 L423 427 L430 793 L454 1200 Q492 1202 535 1209.5 Q578 1217 580 1198 L588 1168 L712 1172 L999 1194 L1133 1201 L1131 1304 Q1002 1306 982 1308 L586 1308 L389 1301 L369 1087 L349 699 L359 -315 L230 -315 L228 -146 L107 -179 L72 -51 L226 -16 L230 559 L237 1012 L69 1056 L103 1180 L248 1148 L261 1290 L226 1294 L226 1429 L999 1440 ZM928 -163 L1040 -176 L1054 -175 L1181 -186 L1325 -186 L1563 -165 Q1645 -158 1678 -132 Q1711 -106 1728.5 -43 Q1746 20 1746 87 L1746 584 Q1746 595 1745.5 623.5 Q1745 652 1728.5 675.5 Q1712 699 1597 699 L1116 699 L982 687 L878 672 L871 643 L854 317 L855 90 Q855 0 896 -89 L928 -163 ZM1267 960 L1273 840 L1517 850 L1765 822 Q1773 884 1772.5 930.5 Q1772 977 1740.5 1017 Q1709 1057 1591 1065 L1378 1079 L1268 1071 L1267 960 Z" /></font>
</defs>
</svg>
